<svg width="254" height="262" viewBox="0 0 254 262" fill="none" xmlns="http://www.w3.org/2000/svg">
<g filter="url(#filter0_d_141_197)">
<path fill-rule="evenodd" clip-rule="evenodd" d="M32.3396 114.18L146.788 29.3333C189.757 38.4373 222 76.5881 222 122.269C222 174.737 179.467 217.269 127 217.269C74.5329 217.269 32 174.737 32 122.269C32 119.545 32.1147 116.847 32.3396 114.18Z" fill="#8BB3FF"/>
</g>
<path fill-rule="evenodd" clip-rule="evenodd" d="M32.3396 114.18L146.788 29.3333C189.757 38.4373 222 76.5881 222 122.269C222 174.737 179.467 217.269 127 217.269C74.5329 217.269 32 174.737 32 122.269C32 119.545 32.1147 116.847 32.3396 114.18Z" fill="#8BB3FF"/>
<path fill-rule="evenodd" clip-rule="evenodd" d="M26.5886 110.975L145.387 22.9033L148.031 23.4637C193.717 33.1432 228 73.6959 228 122.27C228 178.05 182.781 223.27 127 223.27C71.2192 223.27 26 178.05 26 122.27C26 119.376 26.1218 116.51 26.3608 113.676L26.5886 110.975ZM146.788 29.3334L32.3396 114.18C32.1147 116.847 32 119.545 32 122.27C32 174.737 74.5329 217.27 127 217.27C179.467 217.27 222 174.737 222 122.27C222 76.5882 189.757 38.4375 146.788 29.3334Z" fill="white"/>
<path d="M60.0473 53.6702C62.5311 53.6702 64.5446 50.4771 64.5446 46.5381C64.5446 42.5991 62.5311 39.406 60.0473 39.406C57.5636 39.406 55.55 42.5991 55.55 46.5381C55.55 50.4771 57.5636 53.6702 60.0473 53.6702Z" fill="#44403F"/>
<path d="M79.9841 59.5748C71.8693 58.6264 69.4962 60.8622 70.0283 64.9088C70.509 68.5307 74.3797 73.0837 78.8598 73.3197C83.3227 73.5558 87.8157 69.6078 88.1547 65.8615C88.4508 62.583 84.7474 60.1283 79.9841 59.5748Z" fill="#594C49"/>
<path d="M86.9835 55.0553C89.3913 55.0553 91.3434 51.9582 91.3434 48.1378C91.3434 44.3173 89.3913 41.2202 86.9835 41.2202C84.5756 41.2202 82.6235 44.3173 82.6235 48.1378C82.6235 51.9582 84.5756 55.0553 86.9835 55.0553Z" fill="#44403F"/>
<path d="M97.7631 36.4331V15.3501C97.7631 13.08 96.8062 12.3162 95.2699 12.3162C84.5289 12.3162 76.0536 22.2676 76.0536 31.0948V31.9745C69.7154 29.1895 66.7329 29.1466 58.9915 29.9791V15.3501C58.9915 13.08 58.0345 12.3162 56.4982 12.3162C45.7572 12.3162 37.2776 22.2676 37.2776 31.0948V113.034L112.469 87.7268V53.5639C111.002 53.1005 109.611 52.3967 108.204 51.8131C102.496 49.4486 97.7631 42.6083 97.7631 36.4289V36.4331ZM60.0471 53.6712C57.9101 53.6712 55.5499 52.1736 55.5499 46.5391C55.5499 41.2093 57.8929 39.407 60.0471 39.407C62.2013 39.407 64.5444 41.308 64.5444 46.5391C64.5444 52.1907 62.2142 53.6712 60.0471 53.6712ZM88.1593 65.8627C87.8203 69.609 83.323 73.557 78.8644 73.321C74.3843 73.085 70.5135 68.5276 70.0329 64.9101C69.4965 60.8634 71.8739 58.6319 79.9887 59.576C84.752 60.1296 88.4597 62.5842 88.1593 65.8627ZM86.9835 55.0573C84.9108 55.0573 82.6235 53.6068 82.6235 48.1398C82.6235 42.9688 84.8936 41.2222 86.9835 41.2222C89.0733 41.2222 91.3434 43.0632 91.3434 48.1398C91.3434 53.6197 89.0862 55.0573 86.9835 55.0573Z" fill="#EED0BD"/>
<path d="M76.839 31.4236L62.3689 34.8839C60.9344 35.2269 59.6348 33.9522 59.95 32.5113L64.3539 12.3791C64.7402 10.613 67.0854 10.2251 68.0198 11.7727L78.0859 28.4447C78.7858 29.6038 78.1558 31.1087 76.839 31.4236Z" fill="#FF9393"/>
<circle cx="64.5463" cy="4.39815" r="4.39815" fill="#75F0BC"/>
<mask id="mask0_141_197" style="mask-type:alpha" maskUnits="userSpaceOnUse" x="26" y="22" width="202" height="202">
<mask id="path-10-outside-1_141_197" maskUnits="userSpaceOnUse" x="26" y="22.3333" width="202" height="201" fill="black">
<rect fill="white" x="26" y="22.3333" width="202" height="201"/>
<path fill-rule="evenodd" clip-rule="evenodd" d="M32.3396 114.18L146.788 29.3333C189.757 38.4373 222 76.5881 222 122.269C222 174.737 179.467 217.269 127 217.269C74.5329 217.269 32 174.737 32 122.269C32 119.545 32.1147 116.847 32.3396 114.18Z"/>
</mask>
<path fill-rule="evenodd" clip-rule="evenodd" d="M32.3396 114.18L146.788 29.3333C189.757 38.4373 222 76.5881 222 122.269C222 174.737 179.467 217.269 127 217.269C74.5329 217.269 32 174.737 32 122.269C32 119.545 32.1147 116.847 32.3396 114.18Z" fill="#8BB3FF"/>
<path d="M32.3396 114.18L28.7663 109.36L26.5886 110.975L26.3608 113.676L32.3396 114.18ZM146.788 29.3333L148.031 23.4636L145.387 22.9032L143.215 24.5133L146.788 29.3333ZM35.9128 119L150.361 34.1532L143.215 24.5133L28.7663 109.36L35.9128 119ZM145.544 35.203C185.798 43.7316 216 79.4804 216 122.269H228C228 73.6957 193.717 33.143 148.031 23.4636L145.544 35.203ZM216 122.269C216 171.423 176.153 211.269 127 211.269V223.269C182.781 223.269 228 178.05 228 122.269H216ZM127 211.269C77.8467 211.269 38 171.423 38 122.269H26C26 178.05 71.2192 223.269 127 223.269V211.269ZM38 122.269C38 119.713 38.1076 117.184 38.3183 114.684L26.3608 113.676C26.1218 116.51 26 119.376 26 122.269H38Z" fill="white" mask="url(#path-10-outside-1_141_197)"/>
</mask>
<g mask="url(#mask0_141_197)">
<g filter="url(#filter1_d_141_197)">
<path fill-rule="evenodd" clip-rule="evenodd" d="M31.9995 113.531L145.983 29.0282C141.673 77.502 100.954 115.505 51.3601 115.505C44.7258 115.505 38.2503 114.825 31.9995 113.531Z" fill="#CCDEFF"/>
</g>
<g filter="url(#filter2_d_141_197)">
<path d="M109.869 124.134L107.329 120.624C111.273 118.863 114.058 117.136 115.685 115.443C117.334 113.727 118.159 111.833 118.159 109.76V108.29H122.805V109.861C122.805 112.49 122.092 114.752 120.666 116.646L120.9 116.78L122.37 115.71C122.883 115.331 123.362 115.142 123.808 115.142C124.231 115.142 124.688 115.298 125.178 115.61L133.133 120.49L130.56 124.033L121.434 118.084C121.122 117.883 120.788 117.783 120.432 117.783C120.031 117.783 119.674 117.905 119.362 118.15L119.295 118.184C118.292 119.164 117.022 120.134 115.485 121.092C113.969 122.028 112.097 123.042 109.869 124.134ZM134.036 129.482V133.292H106.426V129.482H134.036Z" fill="white"/>
<path d="M163.839 119.554V123.064H136.229V119.554H147.828V117.682H140.173V107.454H159.894V117.682H152.273V119.554H163.839ZM144.585 114.306H155.482V110.83H144.585V114.306ZM144.585 134.629H160.663V137.939H143.148C141.254 137.939 140.307 136.991 140.307 135.097V129.816H155.582V128.044H140.173V124.802H159.894V132.824H144.585V134.629Z" fill="white"/>
<path d="M169.474 124.134L166.934 120.624C170.878 118.863 173.664 117.136 175.29 115.443C176.939 113.727 177.764 111.833 177.764 109.76V108.29H182.41V109.861C182.41 112.49 181.697 114.752 180.271 116.646L180.505 116.78L181.976 115.71C182.488 115.331 182.967 115.142 183.413 115.142C183.836 115.142 184.293 115.298 184.783 115.61L192.739 120.49L190.165 124.033L181.04 118.084C180.728 117.883 180.393 117.783 180.037 117.783C179.636 117.783 179.279 117.905 178.967 118.15L178.9 118.184C177.898 119.164 176.627 120.134 175.09 121.092C173.575 122.028 171.703 123.042 169.474 124.134ZM193.641 129.482V133.292H166.031V129.482H193.641Z" fill="white"/>
<path d="M97.1361 159.996H92.6905V175.172H88.2114V145.489H92.6905V156.252H97.1361V159.996ZM85.905 163.205L86.4398 166.782C84.6348 167.116 82.6627 167.383 80.5234 167.584C78.4064 167.762 75.8661 167.851 72.9023 167.851H69.7937V147.863H83.8326V151.606H74.2728V164.141C78.8633 164.074 82.7407 163.762 85.905 163.205Z" fill="white"/>
<path d="M101.936 152.609C101.936 150.626 102.805 149.044 104.543 147.863C106.304 146.681 108.9 146.091 112.332 146.091C115.763 146.091 118.348 146.681 120.086 147.863C121.847 149.044 122.727 150.626 122.727 152.609C122.727 154.615 121.847 156.208 120.086 157.389C118.348 158.548 115.763 159.127 112.332 159.127C108.9 159.127 106.304 158.548 104.543 157.389C102.805 156.208 101.936 154.615 101.936 152.609ZM106.716 152.843C106.716 153.734 107.173 154.425 108.086 154.915C109.022 155.406 110.437 155.651 112.332 155.651C114.226 155.651 115.641 155.406 116.577 154.915C117.513 154.425 117.981 153.734 117.981 152.843V152.342C117.981 151.473 117.513 150.793 116.577 150.303C115.641 149.79 114.226 149.534 112.332 149.534C110.437 149.534 109.022 149.79 108.086 150.303C107.173 150.793 106.716 151.473 106.716 152.342V152.843ZM126.136 160.498V164.174H114.805V169.69H110.326V164.174H98.5267V160.498H126.136ZM106.716 172.397H122.593V176.107H105.078C103.184 176.107 102.237 175.16 102.237 173.266V166.681H106.716V172.397Z" fill="white"/>
<path d="M164.674 152.342V156.085H160.262V162.57H155.783V145.489H160.262V152.342H164.674ZM151.337 161.467H136.83V146.893H141.176V150.837H146.959V146.893H151.337V161.467ZM146.959 154.514H141.176V157.823H146.959V154.514ZM145.822 172.798H160.797V176.475H144.218C142.323 176.475 141.376 175.528 141.376 173.634V164.342H160.329V167.985H145.822V172.798Z" fill="white"/>
<path d="M187.123 145.489H191.636V175.172H187.123V145.489ZM166.8 165.779C169.653 164.353 171.825 163.038 173.318 161.835C174.811 160.631 175.859 159.35 176.46 157.991C177.084 156.609 177.396 154.904 177.396 152.876V151.606H167.836V147.829H181.942V152.876C181.942 155.439 181.541 157.623 180.739 159.428C179.959 161.233 178.678 162.893 176.895 164.408C175.112 165.901 172.616 167.506 169.407 169.222L166.8 165.779Z" fill="white"/>
</g>
<g filter="url(#filter3_d_141_197)">
<mask id="path-14-outside-2_141_197" maskUnits="userSpaceOnUse" x="148.871" y="58.8152" width="38" height="38" fill="black">
<rect fill="white" x="148.871" y="58.8152" width="38" height="38"/>
<path fill-rule="evenodd" clip-rule="evenodd" d="M167.463 59.8152C177.164 59.8152 185.056 67.7075 185.056 77.4078C185.056 87.1081 177.164 95.0004 167.463 95.0004C157.763 95.0004 149.871 87.1081 149.871 77.4078C149.871 67.7075 157.763 59.8152 167.463 59.8152ZM167.463 61.573C158.731 61.573 151.628 68.6761 151.628 77.4078C151.628 86.1395 158.731 93.2425 167.463 93.2425C176.195 93.2425 183.298 86.1395 183.298 77.4078C183.298 68.6761 176.195 61.573 167.463 61.573ZM173.031 80.7284L168.088 85.6718C167.916 85.844 167.693 85.9229 167.464 85.9229C167.234 85.9229 167.012 85.8368 166.839 85.6647L161.896 80.7212C161.552 80.3768 161.552 79.8244 161.896 79.48C162.24 79.1356 162.793 79.1356 163.137 79.48L166.581 82.9239V69.7653C166.581 69.2774 166.976 68.8828 167.464 68.8828C167.951 68.8828 168.346 69.2774 168.346 69.7653V82.9311L171.79 79.4872C172.134 79.1428 172.687 79.1428 173.031 79.4872C173.376 79.8315 173.376 80.384 173.031 80.7284Z"/>
</mask>
<path fill-rule="evenodd" clip-rule="evenodd" d="M167.463 59.8152C177.164 59.8152 185.056 67.7075 185.056 77.4078C185.056 87.1081 177.164 95.0004 167.463 95.0004C157.763 95.0004 149.871 87.1081 149.871 77.4078C149.871 67.7075 157.763 59.8152 167.463 59.8152ZM167.463 61.573C158.731 61.573 151.628 68.6761 151.628 77.4078C151.628 86.1395 158.731 93.2425 167.463 93.2425C176.195 93.2425 183.298 86.1395 183.298 77.4078C183.298 68.6761 176.195 61.573 167.463 61.573ZM173.031 80.7284L168.088 85.6718C167.916 85.844 167.693 85.9229 167.464 85.9229C167.234 85.9229 167.012 85.8368 166.839 85.6647L161.896 80.7212C161.552 80.3768 161.552 79.8244 161.896 79.48C162.24 79.1356 162.793 79.1356 163.137 79.48L166.581 82.9239V69.7653C166.581 69.2774 166.976 68.8828 167.464 68.8828C167.951 68.8828 168.346 69.2774 168.346 69.7653V82.9311L171.79 79.4872C172.134 79.1428 172.687 79.1428 173.031 79.4872C173.376 79.8315 173.376 80.384 173.031 80.7284Z" fill="white"/>
<path d="M168.088 85.6718L168.795 86.3789L168.795 86.3789L168.088 85.6718ZM173.031 80.7284L172.324 80.0213V80.0213L173.031 80.7284ZM166.839 85.6647L166.132 86.3718L166.839 85.6647ZM161.896 80.7212L161.189 81.4283L161.189 81.4283L161.896 80.7212ZM161.896 79.48L161.189 78.7729L161.189 78.7729L161.896 79.48ZM163.137 79.48L163.844 78.7729L163.844 78.7729L163.137 79.48ZM166.581 82.9239L165.874 83.631L167.581 85.3381V82.9239H166.581ZM168.346 82.9311H167.346V85.3453L169.053 83.6382L168.346 82.9311ZM171.79 79.4872L171.083 78.78L171.083 78.78L171.79 79.4872ZM186.056 77.4078C186.056 67.1552 177.716 58.8152 167.463 58.8152V60.8152C176.611 60.8152 184.056 68.2597 184.056 77.4078H186.056ZM167.463 96.0004C177.716 96.0004 186.056 87.6604 186.056 77.4078H184.056C184.056 86.5558 176.611 94.0004 167.463 94.0004V96.0004ZM148.871 77.4078C148.871 87.6604 157.211 96.0004 167.463 96.0004V94.0004C158.315 94.0004 150.871 86.5558 150.871 77.4078H148.871ZM167.463 58.8152C157.211 58.8152 148.871 67.1552 148.871 77.4078H150.871C150.871 68.2597 158.315 60.8152 167.463 60.8152V58.8152ZM152.628 77.4078C152.628 69.2283 159.284 62.573 167.463 62.573V60.573C158.179 60.573 150.628 68.1238 150.628 77.4078H152.628ZM167.463 92.2425C159.284 92.2425 152.628 85.5872 152.628 77.4078H150.628C150.628 86.6918 158.179 94.2425 167.463 94.2425V92.2425ZM182.298 77.4078C182.298 85.5872 175.643 92.2425 167.463 92.2425V94.2425C176.747 94.2425 184.298 86.6918 184.298 77.4078H182.298ZM167.463 62.573C175.643 62.573 182.298 69.2283 182.298 77.4078H184.298C184.298 68.1238 176.747 60.573 167.463 60.573V62.573ZM168.795 86.3789L173.738 81.4355L172.324 80.0213L167.381 84.9647L168.795 86.3789ZM167.464 86.9229C167.927 86.9229 168.414 86.7595 168.795 86.3789L167.381 84.9647C167.395 84.9507 167.414 84.9381 167.434 84.9303C167.453 84.923 167.464 84.9229 167.464 84.9229V86.9229ZM166.132 86.3718C166.498 86.7379 166.978 86.9229 167.464 86.9229V84.9229C167.474 84.9229 167.489 84.9251 167.507 84.9321C167.525 84.9393 167.538 84.9493 167.546 84.9575L166.132 86.3718ZM161.189 81.4283L166.132 86.3718L167.546 84.9575L162.603 80.0141L161.189 81.4283ZM161.189 78.7729C160.454 79.5078 160.454 80.6934 161.189 81.4283L162.603 80.0141C162.649 80.0602 162.649 80.141 162.603 80.1871L161.189 78.7729ZM163.844 78.7729C163.109 78.038 161.924 78.038 161.189 78.7729L162.603 80.1871C162.557 80.2332 162.476 80.2332 162.43 80.1871L163.844 78.7729ZM167.288 82.2168L163.844 78.7729L162.43 80.1871L165.874 83.631L167.288 82.2168ZM165.581 69.7653V82.9239H167.581V69.7653H165.581ZM167.464 67.8828C166.423 67.8828 165.581 68.7251 165.581 69.7653H167.581C167.581 69.8297 167.528 69.8828 167.464 69.8828V67.8828ZM169.346 69.7653C169.346 68.7251 168.504 67.8828 167.464 67.8828V69.8828C167.399 69.8828 167.346 69.8297 167.346 69.7653H169.346ZM169.346 82.9311V69.7653H167.346V82.9311H169.346ZM171.083 78.78L167.639 82.2239L169.053 83.6382L172.497 80.1943L171.083 78.78ZM173.738 78.78C173.003 78.0451 171.818 78.0451 171.083 78.78L172.497 80.1943C172.451 80.2404 172.37 80.2404 172.324 80.1943L173.738 78.78ZM173.738 81.4355C174.473 80.7006 174.473 79.515 173.738 78.78L172.324 80.1943C172.278 80.1481 172.278 80.0674 172.324 80.0213L173.738 81.4355Z" fill="white" mask="url(#path-14-outside-2_141_197)"/>
</g>
</g>
<defs>
<filter id="filter0_d_141_197" x="0" y="9.33325" width="254" height="251.936" filterUnits="userSpaceOnUse" color-interpolation-filters="sRGB">
<feFlood flood-opacity="0" result="BackgroundImageFix"/>
<feColorMatrix in="SourceAlpha" type="matrix" values="0 0 0 0 0 0 0 0 0 0 0 0 0 0 0 0 0 0 127 0" result="hardAlpha"/>
<feOffset dy="12"/>
<feGaussianBlur stdDeviation="16"/>
<feComposite in2="hardAlpha" operator="out"/>
<feColorMatrix type="matrix" values="0 0 0 0 0 0 0 0 0 0 0 0 0 0 0 0 0 0 0.12 0"/>
<feBlend mode="normal" in2="BackgroundImageFix" result="effect1_dropShadow_141_197"/>
<feBlend mode="normal" in="SourceGraphic" in2="effect1_dropShadow_141_197" result="shape"/>
</filter>
<filter id="filter1_d_141_197" x="15.9995" y="29.0283" width="145.983" height="122.477" filterUnits="userSpaceOnUse" color-interpolation-filters="sRGB">
<feFlood flood-opacity="0" result="BackgroundImageFix"/>
<feColorMatrix in="SourceAlpha" type="matrix" values="0 0 0 0 0 0 0 0 0 0 0 0 0 0 0 0 0 0 127 0" result="hardAlpha"/>
<feOffset dy="20"/>
<feGaussianBlur stdDeviation="8"/>
<feComposite in2="hardAlpha" operator="out"/>
<feColorMatrix type="matrix" values="0 0 0 0 0.0863161 0 0 0 0 0.339674 0 0 0 0 0.821054 0 0 0 0.08 0"/>
<feBlend mode="normal" in2="BackgroundImageFix" result="effect1_dropShadow_141_197"/>
<feBlend mode="normal" in="SourceGraphic" in2="effect1_dropShadow_141_197" result="shape"/>
</filter>
<filter id="filter2_d_141_197" x="65.7937" y="107.454" width="131.847" height="77.021" filterUnits="userSpaceOnUse" color-interpolation-filters="sRGB">
<feFlood flood-opacity="0" result="BackgroundImageFix"/>
<feColorMatrix in="SourceAlpha" type="matrix" values="0 0 0 0 0 0 0 0 0 0 0 0 0 0 0 0 0 0 127 0" result="hardAlpha"/>
<feOffset dy="4"/>
<feGaussianBlur stdDeviation="2"/>
<feComposite in2="hardAlpha" operator="out"/>
<feColorMatrix type="matrix" values="0 0 0 0 0.441302 0 0 0 0 0.622313 0 0 0 0 0.954167 0 0 0 1 0"/>
<feBlend mode="normal" in2="BackgroundImageFix" result="effect1_dropShadow_141_197"/>
<feBlend mode="normal" in="SourceGraphic" in2="effect1_dropShadow_141_197" result="shape"/>
</filter>
<filter id="filter3_d_141_197" x="144.871" y="58.8152" width="45.1851" height="45.1853" filterUnits="userSpaceOnUse" color-interpolation-filters="sRGB">
<feFlood flood-opacity="0" result="BackgroundImageFix"/>
<feColorMatrix in="SourceAlpha" type="matrix" values="0 0 0 0 0 0 0 0 0 0 0 0 0 0 0 0 0 0 127 0" result="hardAlpha"/>
<feOffset dy="4"/>
<feGaussianBlur stdDeviation="2"/>
<feComposite in2="hardAlpha" operator="out"/>
<feColorMatrix type="matrix" values="0 0 0 0 0.443137 0 0 0 0 0.623529 0 0 0 0 0.952941 0 0 0 0.6 0"/>
<feBlend mode="normal" in2="BackgroundImageFix" result="effect1_dropShadow_141_197"/>
<feBlend mode="normal" in="SourceGraphic" in2="effect1_dropShadow_141_197" result="shape"/>
</filter>
</defs>
</svg>
