<svg width="110" height="115" viewBox="0 0 110 115" fill="none" xmlns="http://www.w3.org/2000/svg">
<mask id="mask0_141_391" style="mask-type:alpha" maskUnits="userSpaceOnUse" x="0" y="0" width="110" height="115">
<rect width="110" height="115" fill="#D9D9D9"/>
</mask>
<g mask="url(#mask0_141_391)">
<g filter="url(#filter0_d_141_391)">
<path d="M107.964 65.8914C108.632 60.4502 106.705 54.9058 102.853 50.8069C104.045 49.2841 105.107 47.4283 105.825 45.1852C108.05 38.2463 105.81 30.261 100.257 25.3196C99.9467 25.0423 99.6227 24.7738 99.2942 24.5187C97.1807 22.8783 94.9622 21.8943 92.9321 21.3113C92.815 17.1546 91.6703 11.742 87.485 6.9896C86.5847 5.968 85.5806 5.0255 84.5017 4.18712C77.2954 -1.39925 67.1497 -2.13981 59.2559 2.34185C56.1865 4.08473 53.9378 6.32453 52.2924 8.64432C52.2125 8.58056 52.1348 8.51906 52.0549 8.45531C48.6449 5.81248 44.4444 4.34453 40.2205 4.32614C32.0768 4.29358 24.5646 9.5368 21.9515 17.0811C19.4928 24.1778 21.5565 32.1002 27.0735 37.4707L26.2894 38.9008L26.2803 38.9185L26.2256 39.0207L25.9544 39.5159L25.9042 39.6047L25.7355 39.9156L25.5235 40.3087C25.5007 40.3486 25.4802 40.3909 25.4574 40.4308L25.177 40.9527L24.0275 43.125L23.9545 43.2627C23.943 43.2872 23.9294 43.3094 23.918 43.3338L23.4319 44.2735L22.5828 45.9488L22.5234 46.0688L22.5188 46.0821C22.4389 46.2399 22.3635 46.3977 22.2858 46.5533L21.7468 47.6466C21.7468 47.6466 21.7285 47.6866 21.6989 47.7422L21.6121 47.9155C21.5207 48.1066 21.4248 48.3022 21.3311 48.4955C21.2031 48.7623 21.0729 49.0312 20.9951 49.1957C20.6043 50.0159 20.2135 50.8316 19.8272 51.6474C19.786 51.7363 19.7426 51.823 19.7014 51.9119C19.2123 52.9433 18.7254 53.968 18.2454 54.9772L16.0532 59.6029L16.0576 59.6074C15.5066 60.7834 14.9716 61.9216 14.4617 63.0086L12.9068 66.3343C10.7665 70.9182 9.37356 73.9396 9.37356 73.9396L8.07897 76.7453L9.66982 79.4054C9.74684 79.534 10.385 80.59 11.5721 82.2443C12.0619 82.9268 12.6447 83.7091 13.3184 84.5754C13.3449 84.6071 13.3714 84.6433 13.398 84.6749C13.5393 84.8559 13.6851 85.0414 13.8376 85.2292C13.9039 85.3107 13.9724 85.3945 14.0387 85.4804C14.1536 85.6252 14.2707 85.7678 14.3901 85.9126C14.4785 86.0212 14.5691 86.1322 14.6597 86.2386C14.7681 86.3676 14.8742 86.4989 14.9847 86.6302C15.04 86.6958 15.0908 86.7569 15.1461 86.8226L18.3786 90.6533L18.5181 90.5702C20.9248 93.0895 23.8107 95.7877 27.1808 98.3986C28.4884 99.4125 29.8257 100.362 31.1724 101.271L30.9435 101.561L36.903 104.758C37.7175 105.199 38.5366 105.618 39.3626 106.021C39.3826 106.032 39.4027 106.044 39.4249 106.053C40.2309 106.445 41.0438 106.816 41.8613 107.174C41.9059 107.193 41.9504 107.216 41.9972 107.237C42.7568 107.567 43.5211 107.875 44.29 108.175C44.397 108.216 44.5061 108.265 44.6154 108.304C45.2483 108.546 45.8882 108.767 46.5281 108.989C46.76 109.068 46.9896 109.159 47.2215 109.238L50.4383 110.399L50.5308 110.322L53.0103 108.269C53.7142 107.688 54.4228 107.094 55.1314 106.49C55.5285 106.156 55.9212 105.817 56.3162 105.48C56.5982 105.24 56.8781 104.998 57.1625 104.756C57.6658 104.322 58.1668 103.886 58.668 103.445C58.8237 103.311 58.9795 103.172 59.133 103.035C59.6928 102.542 60.2504 102.051 60.8058 101.553C60.8284 101.531 60.8487 101.511 60.8735 101.491L61.1061 101.282C61.6457 100.799 62.1808 100.317 62.716 99.8297L66.0802 96.7932L66.0291 96.7544C67.8746 95.0147 69.6979 93.2523 71.4833 91.4692C72.4371 90.5158 73.3865 89.549 74.3293 88.5799L74.3604 88.5937L77.2235 85.5547C77.305 85.4663 77.3842 85.3802 77.4633 85.294C77.746 84.9914 78.0332 84.6889 78.3137 84.384C79.033 83.6109 79.7478 82.8332 80.4582 82.051C80.594 81.9007 80.7297 81.7549 80.8655 81.6047C80.965 81.4942 81.0691 81.3838 81.1686 81.2733C81.2025 81.2357 81.2387 81.1959 81.2727 81.1584C84.1221 82.1511 87.883 82.8209 92.1047 81.9599C99.1938 80.5145 106.845 74.9891 107.961 65.8981L107.964 65.8914Z" fill="#E3EDFF"/>
<path d="M53.6839 21.1666C52.1266 14.7301 46.4801 10.217 40.2158 10.1882C34.6472 10.1623 29.3383 13.6842 27.4902 19.0195C25.3403 25.2255 28.3293 32.5724 34.7887 35.8975C32.6019 39.5433 29.5248 44.9532 26.2839 51.737C20.305 64.2554 14.6989 76.4053 14.6989 76.4053C14.6989 76.4053 26.6093 96.3254 49.2642 103.74C55.0715 98.9336 61.1539 93.4781 67.3375 87.3035C71.8734 82.7775 76.0128 78.3108 79.786 73.9844C80.8753 74.6798 85.3411 77.3462 90.9214 76.2088C95.6497 75.243 101.375 71.5098 102.155 65.1528C102.869 59.3296 99.1761 53.4273 93.124 51.2065C93.9624 50.8221 98.5735 48.6151 100.253 43.3781C101.849 38.3996 100.064 32.969 96.3789 29.6914C92.4339 26.1797 87.6511 26.3348 86.6124 26.392C86.813 25.5758 88.7182 17.2297 83.1018 10.8487C77.9122 4.95473 68.8551 3.64307 62.1697 7.43671C54.6764 11.6912 53.7685 20.313 53.6929 21.1622L53.6839 21.1666Z" fill="#8BB3FF"/>
<path d="M51.7339 60.387C51.2322 59.9997 50.9522 59.3603 51.0529 58.6905C51.6953 54.4437 51.7741 47.9427 48.5006 41.0774C46.614 37.12 43.7929 33.5389 40.3399 30.7209C39.5699 30.0905 39.4538 28.9589 40.079 28.189C40.7065 27.4213 41.8308 27.3116 42.6098 27.9377C46.4711 31.0925 49.6324 35.1034 51.7468 39.5384C55.4148 47.2281 55.3282 54.4987 54.6093 59.2411C54.4607 60.2235 53.5455 60.8954 52.5626 60.7431C52.2499 60.694 51.9692 60.5693 51.7339 60.387Z" fill="#5285E6"/>
<path d="M51.8228 62.2814C51.6119 62.1196 51.4328 61.9046 51.3079 61.65C50.8694 60.7579 51.2382 59.68 52.1286 59.2449C56.5939 57.065 61.5481 55.8875 66.453 55.8348C74.9581 55.7449 81.5267 58.888 85.5363 61.5392C86.363 62.0921 86.5957 63.2029 86.0504 64.0321C85.5051 64.8614 84.3909 65.0853 83.5596 64.5368C79.9701 62.1622 74.0962 59.3509 66.5018 59.4289C62.1251 59.4755 57.7024 60.5283 53.7114 62.4754C53.0751 62.7866 52.3445 62.6847 51.8184 62.2769L51.8228 62.2814Z" fill="#5285E6"/>
<path d="M49.7065 63.3551C49.6599 63.3209 49.6155 63.28 49.5712 63.2391C48.8465 62.5556 48.8132 61.4185 49.4939 60.6963C56.9049 52.8361 62.2754 43.8534 65.4532 33.9989C66.6519 30.2767 67.5388 26.4115 68.0815 22.5057C68.2189 21.5209 69.1252 20.8399 70.1105 20.9811C71.0957 21.1223 71.7802 22.0313 71.6427 23.0161C71.0711 27.1273 70.1374 31.1978 68.8741 35.1159C65.5323 45.485 59.8909 54.9226 52.1135 63.1715C51.4735 63.8496 50.4303 63.9156 49.7065 63.3551Z" fill="#5285E6"/>
<path d="M49.4502 63.6889C49.3969 63.6479 49.3436 63.6024 49.2971 63.5548C48.5837 62.8602 48.5661 61.7211 49.2556 61.0124C55.0545 55.0451 61.6758 50.0647 68.9279 46.2095C72.8441 44.1271 76.9741 42.3677 81.2056 40.9699C82.1462 40.6585 83.168 41.1716 83.4807 42.1157C83.7933 43.0598 83.2864 44.0775 82.3436 44.3866C78.3051 45.72 74.3639 47.4015 70.6276 49.388C63.7017 53.0664 57.3825 57.8228 51.8413 63.5252C51.1992 64.1875 50.1695 64.2448 49.4524 63.6912L49.4502 63.6889Z" fill="#5285E6"/>
<path d="M34.6588 36.1126C34.5268 36.3345 34.3902 36.5653 34.2491 36.8005C34.24 36.8183 34.2264 36.836 34.2173 36.8538C34.0875 37.0735 33.9533 37.2976 33.8212 37.5285C33.8007 37.5618 33.7802 37.5995 33.7597 37.6328C33.6322 37.8503 33.5025 38.0745 33.3704 38.3009C33.3431 38.3497 33.3135 38.4008 33.2839 38.4473C33.1587 38.6626 33.0334 38.8824 32.9059 39.1044C32.8649 39.1754 32.8239 39.2464 32.7829 39.3175C32.6622 39.5283 32.5415 39.7392 32.4185 39.9568C32.3707 40.0389 32.3251 40.1233 32.275 40.2076C32.1566 40.4163 32.0381 40.6295 31.9174 40.8448C31.8604 40.9447 31.8012 41.0513 31.7442 41.1557C31.6325 41.3577 31.5186 41.562 31.4047 41.7663C31.3363 41.8906 31.2657 42.0172 31.1973 42.146C31.0902 42.3392 30.9853 42.5346 30.8759 42.7344C30.8006 42.8744 30.7231 43.0165 30.6456 43.1586C30.5408 43.3496 30.4404 43.5406 30.3333 43.7338C30.2466 43.8981 30.1577 44.0647 30.0688 44.2313C29.973 44.409 29.8773 44.5866 29.7815 44.7688C29.6857 44.9509 29.5875 45.1397 29.4917 45.3219C29.4005 45.4951 29.3093 45.6684 29.218 45.8461C29.1176 46.0372 29.0172 46.2371 28.9167 46.4326C28.8255 46.6059 28.7387 46.7792 28.6475 46.9569C28.5402 47.1635 28.4329 47.3746 28.3279 47.5835C28.2412 47.7568 28.1522 47.9278 28.0632 48.1034C27.949 48.33 27.8326 48.5633 27.7184 48.7944C27.6384 48.9567 27.5563 49.1166 27.4763 49.2788C27.3416 49.5477 27.2113 49.8211 27.0766 50.0944C27.0126 50.2278 26.9464 50.3589 26.8824 50.4922C26.6836 50.9034 26.4826 51.3168 26.2837 51.7369C20.3047 64.2553 14.6987 76.4053 14.6987 76.4053C14.6987 76.4053 26.5211 96.172 49.0097 103.655C49.1056 103.686 49.1926 103.716 49.2617 103.742C55.069 98.9357 61.1514 93.4802 67.335 87.3056C71.871 82.7796 76.0103 78.3129 79.7835 73.9866C79.9125 74.0689 65.5889 66.7212 53.5318 57.3734C42.1474 48.5473 36.0174 36.7311 34.661 36.1149L34.6588 36.1126Z" fill="#FF83B3"/>
<path d="M38.1266 64.1251C36.459 62.8646 34.1829 62.9382 32.6368 63.6058C29.6976 64.8762 28.0959 68.85 29.2191 72.1749C30.3229 75.4345 33.9595 77.7941 36.7669 76.9583C40.243 75.9258 40.9537 70.4427 40.0287 67.2034C39.8191 66.4689 39.4078 65.0938 38.1266 64.1251Z" fill="#C35EF2"/>
<path d="M56.8868 71.7262C56.3066 71.3535 53.3834 69.4759 50.3913 70.43C46.322 71.7227 43.4571 77.8248 45.9142 82.4479C47.9256 86.2304 53.0628 88.2103 56.9448 86.1923C59.9047 84.6538 61.3377 81.2078 61.0285 78.1427C60.6401 74.2776 57.6004 72.1859 56.8868 71.7262Z" fill="#C35EF2"/>
<path d="M38.8715 83.9327C36.8488 81.7208 33.5403 81.4422 31.191 82.7834C28.5694 84.2796 28.1911 87.1876 28.1668 87.3841C27.9114 89.636 28.943 91.8408 30.7114 93.0959C33.0728 94.7733 36.5824 94.6386 38.7573 92.391C41.0092 90.064 41.027 86.2896 38.8715 83.9327Z" fill="#C35EF2"/>
<path d="M33.9736 45.9484C33.3812 44.5596 32.3607 43.2522 31.1129 42.3041C31.0354 42.4462 30.9579 42.5883 30.8781 42.7326C30.8029 42.8725 30.7254 43.0147 30.6479 43.1568C30.543 43.3478 30.4427 43.5388 30.3356 43.732C30.2489 43.8963 30.16 44.0629 30.071 44.2295C29.9753 44.4071 29.8795 44.5848 29.7837 44.7669C29.6879 44.9491 29.5898 45.1379 29.494 45.3201C29.4028 45.4933 29.3115 45.6666 29.2202 45.8443C29.1199 46.0353 29.0194 46.2353 28.919 46.4308C28.8278 46.6041 28.741 46.7774 28.6497 46.9551C28.5425 47.1617 28.4352 47.3728 28.3302 47.5816C28.2434 47.755 28.1544 47.926 28.0654 48.1015C27.9513 48.3282 27.8348 48.5615 27.7206 48.7926C27.6407 48.9548 27.5585 49.1148 27.4786 49.277C27.3439 49.5459 27.2136 49.8193 27.0788 50.0926C27.0148 50.226 26.9486 50.3571 26.8846 50.4904C26.6859 50.9016 26.4848 51.315 26.2859 51.7351C25.4746 53.431 24.6722 55.1226 23.8882 56.7786C25.8457 57.6851 28.1727 57.8942 30.2762 56.9658C34.4631 55.1154 35.5868 49.7252 33.9781 45.9484L33.9736 45.9484Z" fill="#C35EF2"/>
<path d="M53.5298 57.3717C49.8401 54.5102 46.7062 51.3364 44.103 48.3312C43.0304 49.5379 42.2879 51.0603 42.0872 52.7714C41.698 56.1021 43.4018 59.7683 46.7946 61.2273C50.1183 62.6607 53.7064 61.3904 55.8569 59.1314C55.0752 58.5522 54.2958 57.9663 53.5298 57.3717Z" fill="#C35EF2"/>
<path d="M68.5694 71.1665C68.2467 72.5492 67.6128 75.2948 69.1514 78.0279C69.9977 79.5321 71.3788 80.802 72.9511 81.5175C75.3506 78.971 77.6267 76.4564 79.7816 73.9848C79.8527 74.0305 75.4966 71.7974 69.5477 68.2132C68.9856 69.3823 68.7145 70.533 68.5671 71.1687L68.5694 71.1665Z" fill="#C35EF2"/>
<path d="M49.0074 103.653C49.1033 103.684 49.1903 103.714 49.2594 103.739C51.775 101.656 54.3457 99.4425 56.951 97.1115C54.6556 95.321 51.8686 94.8034 51.4107 94.7277C45.8312 93.7821 41.869 97.5442 41.2996 98.1046C41.0669 98.3318 40.4906 98.8988 39.8606 99.7C42.6801 101.214 45.7294 102.565 49.0052 103.655L49.0074 103.653Z" fill="#C35EF2"/>
<path d="M22.6847 79.9282C24.5929 76.6164 24.2078 71.5342 21.0504 69.5795C20.1476 69.0211 19.1742 68.8151 18.221 68.8243C16.0875 73.3926 14.6991 76.4051 14.6991 76.4051C14.6991 76.4051 16.3604 79.1825 19.6216 83.0472C20.961 82.2402 22.0311 81.0669 22.6891 79.9283L22.6847 79.9282Z" fill="#C35EF2"/>
</g>
</g>
<defs>
<filter id="filter0_d_141_391" x="-2.9209" y="-2.57324" width="111.015" height="118.972" filterUnits="userSpaceOnUse" color-interpolation-filters="sRGB">
<feFlood flood-opacity="0" result="BackgroundImageFix"/>
<feColorMatrix in="SourceAlpha" type="matrix" values="0 0 0 0 0 0 0 0 0 0 0 0 0 0 0 0 0 0 127 0" result="hardAlpha"/>
<feOffset dx="-7" dy="2"/>
<feGaussianBlur stdDeviation="2"/>
<feComposite in2="hardAlpha" operator="out"/>
<feColorMatrix type="matrix" values="0 0 0 0 0 0 0 0 0 0 0 0 0 0 0 0 0 0 0.25 0"/>
<feBlend mode="normal" in2="BackgroundImageFix" result="effect1_dropShadow_141_391"/>
<feBlend mode="normal" in="SourceGraphic" in2="effect1_dropShadow_141_391" result="shape"/>
</filter>
</defs>
</svg>
