<svg width="136" height="164" viewBox="0 0 136 164" fill="none" xmlns="http://www.w3.org/2000/svg">
<mask id="mask0_141_409" style="mask-type:alpha" maskUnits="userSpaceOnUse" x="0" y="0" width="136" height="164">
<rect width="136" height="164" fill="#D9D9D9"/>
</mask>
<g mask="url(#mask0_141_409)">
<g filter="url(#filter0_d_141_409)">
<path d="M100.255 157.507C80.7308 153.565 16.1326 136.728 4.60084 85.626C0.329449 66.701 1.96318 40.3889 20.6139 28.5555C21.6388 27.9052 22.7157 27.3071 23.7931 26.7842C31.642 22.9674 39.8759 21.9038 48.0177 23.5273C51.3829 16.2955 56.3351 10.5814 62.8487 6.44871C64.3928 5.46901 66.0256 4.58434 67.7041 3.83141C79.1769 -1.33908 91.6193 -1.01633 102.753 4.74164C117.62 12.4335 128.912 29.4102 132.952 50.1463C137.489 73.4411 128.476 132.018 127.437 138.625L123.709 162.247L100.266 157.51L100.255 157.507Z" fill="#FFE7E4"/>
<path d="M105.06 148.019C91.5909 145.298 23.8883 129.322 13.1588 81.7936C10.5302 70.1303 9.31397 45.6854 23.5401 36.6593C24.1366 36.2808 24.7637 35.9346 25.4022 35.6224C36.9798 29.9908 47.3516 33.788 55.5444 40.0107C56.8124 26.7734 61.4961 17.6989 69.6622 12.5178C70.7005 11.859 71.8075 11.2599 72.9465 10.7438C80.9927 7.11532 89.3678 7.326 97.1651 11.3626C108.881 17.4253 118.29 32.108 121.711 49.6915C125.312 68.1935 119.277 117.313 115.591 140.707L114.153 149.849L105.079 148.017L105.06 148.019Z" fill="#FFBCB5"/>
<path d="M66.8057 66.0128C53.1159 46.6011 43.2536 43.8024 34.7312 47.9498C26.1746 52.1086 25.6418 69.5159 28.0731 80.2821C36.8219 119.041 97.5277 132.063 103.916 133.358C107.581 110.143 112.187 69.0757 109.432 54.9011C105.699 35.7188 92.2438 18.9564 76.9459 25.8538C67.1497 30.2725 63.8123 43.5525 66.8177 66.0155L66.8057 66.0128Z" fill="#F3A79F"/>
</g>
</g>
<defs>
<filter id="filter0_d_141_409" x="-3.35498" y="0.175293" width="139.575" height="171.072" filterUnits="userSpaceOnUse" color-interpolation-filters="sRGB">
<feFlood flood-opacity="0" result="BackgroundImageFix"/>
<feColorMatrix in="SourceAlpha" type="matrix" values="0 0 0 0 0 0 0 0 0 0 0 0 0 0 0 0 0 0 127 0" result="hardAlpha"/>
<feOffset dx="-2" dy="5"/>
<feGaussianBlur stdDeviation="2"/>
<feComposite in2="hardAlpha" operator="out"/>
<feColorMatrix type="matrix" values="0 0 0 0 0 0 0 0 0 0 0 0 0 0 0 0 0 0 0.2 0"/>
<feBlend mode="normal" in2="BackgroundImageFix" result="effect1_dropShadow_141_409"/>
<feBlend mode="normal" in="SourceGraphic" in2="effect1_dropShadow_141_409" result="shape"/>
</filter>
</defs>
</svg>
