<svg width="80" height="89" viewBox="0 0 80 89" fill="none" xmlns="http://www.w3.org/2000/svg">
<mask id="mask0_141_539" style="mask-type:alpha" maskUnits="userSpaceOnUse" x="0" y="0" width="80" height="89">
<rect width="80" height="89" fill="#D9D9D9"/>
</mask>
<g mask="url(#mask0_141_539)">
<g filter="url(#filter0_d_141_539)">
<path d="M8.19763 71.4582C5.30319 61.4888 -2.52169 27.5885 18.2942 9.9213C26.003 3.37811 38.5496 -2.22189 48.519 3.53394C49.0668 3.85025 49.6032 4.20314 50.1048 4.57446C53.7632 7.27761 56.2429 10.8235 57.4594 14.9758C61.6121 14.7835 65.4471 15.6907 68.9288 17.7008C69.7542 18.1774 70.5571 18.7178 71.3102 19.3112C76.4689 23.361 79.3247 29.1854 79.3544 35.7181C79.3924 44.442 74.2788 53.7568 65.6777 60.6304C56.0151 68.352 26.7847 78.3358 23.4828 79.4518L11.6728 83.4349L8.19915 71.4638L8.19763 71.4582Z" fill="#FFE7E4"/>
<path d="M13.7398 71.3858C11.7434 64.5084 2.7712 29.3823 22.1307 12.9485C26.8825 8.91771 37.8784 2.45245 45.4828 6.84282C45.8016 7.02689 46.113 7.23291 46.4113 7.45239C51.8083 11.4394 52.5594 17.1465 51.6642 22.4331C58.0839 19.8218 63.406 19.7934 67.771 22.3136C68.326 22.634 68.8701 23.0006 69.3835 23.402C73.0025 26.2418 74.9278 30.1606 74.9466 34.7366C74.9762 41.6118 70.4674 49.5031 63.1727 55.3295C55.4974 61.4609 31.3544 70.5363 19.6604 74.4839L15.0903 76.0275L13.7454 71.3942L13.7398 71.3858Z" fill="#FFBCB5"/>
<path d="M42.3751 33.9136C48.034 22.903 46.9448 17.6723 42.9711 14.7379C38.984 11.7905 30.8159 15.7484 26.4308 19.4714C10.6433 32.8724 19.2901 64.0537 20.2347 67.3171C31.8412 63.4029 51.9204 55.6123 57.8013 50.9164C65.759 44.5598 70.2511 34.2976 63.3711 28.8981C58.9645 25.441 52.0253 27.1068 42.3767 33.9198L42.3751 33.9136Z" fill="#F3A79F"/>
</g>
</g>
<defs>
<filter id="filter0_d_141_539" x="-1.6665" y="1.1373" width="83.021" height="91.2976" filterUnits="userSpaceOnUse" color-interpolation-filters="sRGB">
<feFlood flood-opacity="0" result="BackgroundImageFix"/>
<feColorMatrix in="SourceAlpha" type="matrix" values="0 0 0 0 0 0 0 0 0 0 0 0 0 0 0 0 0 0 127 0" result="hardAlpha"/>
<feOffset dx="-2" dy="5"/>
<feGaussianBlur stdDeviation="2"/>
<feComposite in2="hardAlpha" operator="out"/>
<feColorMatrix type="matrix" values="0 0 0 0 0 0 0 0 0 0 0 0 0 0 0 0 0 0 0.2 0"/>
<feBlend mode="normal" in2="BackgroundImageFix" result="effect1_dropShadow_141_539"/>
<feBlend mode="normal" in="SourceGraphic" in2="effect1_dropShadow_141_539" result="shape"/>
</filter>
</defs>
</svg>
