<svg width="93" height="96" viewBox="0 0 93 96" fill="none" xmlns="http://www.w3.org/2000/svg">
<mask id="mask0_141_330" style="mask-type:alpha" maskUnits="userSpaceOnUse" x="0" y="0" width="93" height="96">
<rect width="93" height="96" fill="#D9D9D9"/>
</mask>
<g mask="url(#mask0_141_330)">
<g filter="url(#filter0_d_141_330)">
<mask id="path-2-outside-1_141_330" maskUnits="userSpaceOnUse" x="-12.3204" y="-13.8999" width="121.374" height="118.537" fill="black">
<rect fill="white" x="-12.3204" y="-13.8999" width="121.374" height="118.537"/>
<path fill-rule="evenodd" clip-rule="evenodd" d="M54.7839 25.3847C54.9162 25.0985 55.0486 24.8124 55.1841 24.5279L55.2667 24.3506C56.0898 22.5868 56.9092 20.8308 57.4531 18.9375C57.8064 17.7078 58.1041 16.4763 58.2879 15.2187C58.5129 13.6758 58.5115 12.1296 57.8053 10.6279C57.3426 9.6428 56.6879 8.82154 55.6533 8.42137C55.0326 8.18133 54.35 8.08551 53.6819 7.99174L53.5114 7.96771C51.6413 7.70162 49.7929 7.86594 48.0223 8.35488C46.4934 8.77693 45.0031 9.34768 43.5507 9.96667C42.4391 10.441 41.352 11.011 40.3669 11.6888C39.0381 12.6026 37.7096 13.5466 36.6814 14.8005C36.2042 15.3832 35.7275 15.979 35.3543 16.6273C34.8872 17.4399 34.4891 18.2971 34.1333 19.1648C33.8787 19.7846 33.6898 20.4442 33.5695 21.1064C33.4559 21.7354 33.3925 22.3755 33.3292 23.0152L33.3292 23.0152L33.3292 23.0157C33.3068 23.2411 33.2845 23.4665 33.26 23.6914C33.118 25.0056 33.2171 26.3302 33.6414 27.5878C33.7148 27.8057 33.7848 28.0258 33.855 28.2464C34.2032 29.3411 34.5551 30.4475 35.3522 31.3623C35.4776 31.5061 35.5996 31.6552 35.7217 31.8044L35.7217 31.8045L35.7217 31.8045C36.0658 32.225 36.4114 32.6473 36.839 32.9591C37.6339 33.538 38.5234 34.0155 39.4225 34.4255C39.9899 34.6839 40.6493 34.8461 41.2657 34.8618C42.2879 34.8877 43.316 34.8066 44.3282 34.6877C45.8812 34.5065 47.2535 33.8613 48.4973 33.0051C49.6412 32.2166 50.7636 31.4092 51.6739 30.3317C52.4771 29.3798 53.251 28.4204 53.8367 27.3305C54.1778 26.6953 54.4808 26.04 54.7839 25.3847ZM59.6683 30.2609L59.6689 30.2597C59.5999 30.473 59.5149 30.7175 59.4216 30.9858L59.4213 30.9866L59.4212 30.9871C59.1721 31.7036 58.8643 32.5888 58.6458 33.4972C58.475 34.2089 58.4046 34.9464 58.3342 35.684L58.3342 35.684L58.3342 35.684L58.3342 35.6841L58.3342 35.6841L58.3342 35.6842L58.3342 35.6843C58.305 35.9903 58.2758 36.2963 58.2394 36.6005C58.0525 38.1679 58.3206 39.713 58.8372 41.203C59.1734 42.172 59.6692 43.1158 60.2303 43.9915C60.9804 45.162 62.0027 46.1303 63.2444 46.8133C64.8597 47.7022 66.6237 47.8122 68.3703 47.594C69.025 47.5121 69.6594 47.3159 70.2944 47.1194L70.2946 47.1194C70.6427 47.0117 70.991 46.9039 71.343 46.8149C72.4618 46.5314 73.3915 45.9155 74.2567 45.2431C74.8156 44.8093 75.3256 44.3174 75.8359 43.8252C76.1477 43.5246 76.4595 43.2238 76.7827 42.9361C77.5892 42.2185 78.1306 41.3146 78.6694 40.4151L78.6694 40.415L78.6695 40.4149L78.6695 40.4148L78.6696 40.4147C78.7638 40.2574 78.858 40.1002 78.9535 39.9442C79.1536 39.617 79.268 39.2404 79.383 38.8623C79.4615 38.6041 79.5402 38.3451 79.6465 38.1008C80.2258 36.7708 80.323 35.3351 80.3411 33.921C80.3607 32.3331 80.1833 30.73 80.0055 29.1396C79.899 28.1885 79.7201 27.2211 79.4114 26.3083C78.7294 24.2915 78.0127 22.2786 76.7435 20.4903C76.0443 19.5068 75.2665 18.5816 74.2481 17.92C73.1385 17.1987 71.895 17.1707 70.6597 17.4763C68.7632 17.9451 67.419 19.1994 66.1467 20.5062C64.5181 22.1797 63.2398 24.1244 61.9948 26.0775C61.4776 26.8884 61.0239 27.7388 60.5016 28.7177L60.5016 28.7177L60.5016 28.7178L60.5015 28.7179C60.2456 29.1975 59.9733 29.7079 59.6689 30.2597L59.6691 30.2591L59.6683 30.2609ZM49.6934 41.7497C52.1243 42.7762 53.899 44.4648 55.4207 46.4217C56.2072 47.4336 56.7112 48.5902 57.2177 49.7525C57.2685 49.8691 57.3193 49.9857 57.3704 50.1022C58.176 51.9388 58.2742 53.8263 58.3729 55.7253L58.373 55.7256C58.3902 56.0577 58.4075 56.3901 58.4286 56.7227C58.5025 57.8845 58.6662 59.0567 58.942 60.1951C59.2198 61.3409 59.6417 62.466 60.0886 63.5695C60.2519 63.9729 60.4681 64.3571 60.6843 64.7413L60.6844 64.7414L60.6844 64.7414C60.8931 65.1123 61.1019 65.4833 61.2632 65.8716C61.8525 67.2897 62.4362 68.7169 62.8794 70.1763C63.1911 71.2036 63.3697 72.2903 63.4199 73.3525C63.4745 74.4933 63.3611 75.6433 63.2303 76.7755C63.0957 77.9414 62.6848 79.0316 62.1179 80.0583C61.6263 80.9507 60.9938 81.7244 60.2431 82.4288C59.4357 83.1859 58.6035 83.9193 57.565 84.3326C55.4173 85.1869 53.2159 85.8293 50.7957 85.6642C48.8529 85.5315 46.9546 85.154 45.1427 84.4838C44.1208 84.1065 43.1559 83.564 42.1937 83.023C41.8965 82.8559 41.5996 82.6889 41.3013 82.527C39.6566 81.635 38.3185 80.3831 36.9791 79.1301L36.979 79.13L36.9789 79.1299L36.9788 79.1298C36.5922 78.7681 36.2055 78.4064 35.8113 78.0531C35.1535 77.4637 34.3807 76.9889 33.6154 76.5188L33.6133 76.5175C33.4869 76.4398 33.3607 76.3623 33.2353 76.2844C32.9101 76.0826 32.5583 75.9241 32.2062 75.7654L32.206 75.7653L32.2058 75.7652L32.2056 75.7651C31.9837 75.6651 31.7616 75.565 31.546 75.4539C30.2336 74.7771 28.8261 74.487 27.3905 74.2394C26.7025 74.1212 26.025 73.9369 25.347 73.7524L25.3469 73.7523C24.9376 73.641 24.5281 73.5295 24.1161 73.4326C22.4357 73.0381 20.9335 72.2215 19.4429 71.4111L19.1566 71.2556C18.1748 70.7233 17.2844 69.9944 16.4336 69.265C15.5997 68.5501 14.7841 67.7825 14.111 66.9288C14.0069 66.7967 13.9008 66.6653 13.7944 66.5336C13.1924 65.788 12.5826 65.0329 12.2861 64.0972C12.141 63.6393 11.9603 63.1908 11.7796 62.7422C11.6869 62.5123 11.5943 62.2823 11.5064 62.051C10.8498 60.3242 10.8406 58.5836 11.1658 56.8256C11.3351 55.9111 11.5804 55.036 12.0114 54.2117C12.5762 53.1301 13.2893 52.1589 14.223 51.364C15.0084 50.6956 15.8109 50.0363 16.6709 49.4626C17.3824 48.9872 18.159 48.5741 18.9623 48.2545C20.0514 47.8201 21.1774 47.4528 22.3162 47.1487C22.8884 46.9959 23.4744 46.8886 24.0605 46.7813L24.0606 46.7813C24.5521 46.6912 25.0438 46.6012 25.5276 46.4843C26.0202 46.3657 26.5007 46.2054 26.9815 46.0449L26.9816 46.0449L26.9817 46.0448L26.9818 46.0448C27.272 45.9479 27.5624 45.851 27.8556 45.7633C30.3598 45.0131 32.7098 43.9449 34.8942 42.5825C36.429 41.6247 38.0846 40.9389 39.843 40.5184C41.1861 40.1974 42.5923 40.1585 44.0098 40.2499C46.0328 40.3799 47.9626 40.8025 49.693 41.7506L49.6934 41.7497ZM12.3501 26.8154C13.3568 24.543 14.9086 22.666 16.7223 21.0064C17.6547 20.1527 18.6869 19.3476 19.8132 18.7618C21.2601 18.0099 22.8381 17.3592 24.5846 17.7688C25.241 17.9232 25.9115 18.318 26.4256 18.7664C27.331 19.5563 27.8781 20.5869 28.3262 21.6997C29.0431 23.4822 29.5304 25.3062 29.7291 27.1747C29.8928 28.7142 29.9089 30.2696 29.889 31.8132C29.8715 33.1479 29.7893 34.4906 29.5831 35.8023C29.4812 36.4518 29.2335 37.0766 28.9867 37.6989L28.9866 37.699C28.906 37.9024 28.8254 38.1055 28.7501 38.3092C28.2853 39.5622 27.6041 40.7058 26.6733 41.6604C26.0523 42.2985 25.3155 42.8554 24.5507 43.3312C23.0767 44.249 21.4489 44.7414 19.6313 44.4454C19.5488 44.432 19.4661 44.4188 19.3832 44.4057L19.3823 44.4055C18.7413 44.3036 18.0913 44.2003 17.4902 43.9759C16.1514 43.4771 15.2183 42.4625 14.2795 41.4419L14.1894 41.3439C12.683 39.7077 12.0248 37.7 11.4808 35.7037C10.8919 33.5459 10.9306 31.3209 11.4973 29.1696C11.6429 28.617 11.8548 28.0832 12.0667 27.5497C12.1638 27.3053 12.2608 27.061 12.3514 26.8149L12.3501 26.8154ZM81.6749 67.0148C83.0997 65.7644 84.1483 64.2143 85.0096 62.5243L85.0091 62.523C85.0932 62.2728 85.177 62.0223 85.2608 61.7718C85.4062 61.3371 85.5517 60.9022 85.699 60.4681C86.1493 59.1392 86.4608 57.784 86.5791 56.3702C86.754 54.2715 86.7775 52.2018 85.8372 50.1966C85.3058 49.0646 84.5337 48.1486 83.3283 47.6617C82.9808 47.522 82.5702 47.4794 82.1944 47.4867C81.9765 47.4906 81.7566 47.4901 81.5364 47.4895C80.8006 47.4877 80.06 47.4858 79.3703 47.6505C76.4303 48.3515 73.7775 49.6836 71.3618 51.3753C71.2002 51.4883 71.0381 51.601 70.8758 51.7138C69.2849 52.8193 67.6784 53.9356 66.4947 55.4945C66.3544 55.6793 66.2081 55.8603 66.0619 56.0415C65.5707 56.6497 65.0788 57.2589 64.8065 58.0131C64.7615 58.1372 64.6969 58.2554 64.6324 58.3733C64.5474 58.5285 64.4628 58.6832 64.4234 58.8506C64.3675 59.0877 64.3093 59.3246 64.251 59.5616C64.036 60.4357 63.8206 61.3111 63.7227 62.2024C63.5702 63.5956 64.0244 64.9278 64.5736 66.2405C64.9752 67.1998 65.583 67.9868 66.3367 68.6926C67.668 69.9385 69.32 70.4755 71.066 70.6232C72.8034 70.7701 74.4871 70.5466 76.1619 70.0078C78.227 69.3435 80.0903 68.4065 81.6749 67.0148Z"/>
</mask>
<path fill-rule="evenodd" clip-rule="evenodd" d="M54.7839 25.3847C54.9162 25.0985 55.0486 24.8124 55.1841 24.5279L55.2667 24.3506C56.0898 22.5868 56.9092 20.8308 57.4531 18.9375C57.8064 17.7078 58.1041 16.4763 58.2879 15.2187C58.5129 13.6758 58.5115 12.1296 57.8053 10.6279C57.3426 9.6428 56.6879 8.82154 55.6533 8.42137C55.0326 8.18133 54.35 8.08551 53.6819 7.99174L53.5114 7.96771C51.6413 7.70162 49.7929 7.86594 48.0223 8.35488C46.4934 8.77693 45.0031 9.34768 43.5507 9.96667C42.4391 10.441 41.352 11.011 40.3669 11.6888C39.0381 12.6026 37.7096 13.5466 36.6814 14.8005C36.2042 15.3832 35.7275 15.979 35.3543 16.6273C34.8872 17.4399 34.4891 18.2971 34.1333 19.1648C33.8787 19.7846 33.6898 20.4442 33.5695 21.1064C33.4559 21.7354 33.3925 22.3755 33.3292 23.0152L33.3292 23.0152L33.3292 23.0157C33.3068 23.2411 33.2845 23.4665 33.26 23.6914C33.118 25.0056 33.2171 26.3302 33.6414 27.5878C33.7148 27.8057 33.7848 28.0258 33.855 28.2464C34.2032 29.3411 34.5551 30.4475 35.3522 31.3623C35.4776 31.5061 35.5996 31.6552 35.7217 31.8044L35.7217 31.8045L35.7217 31.8045C36.0658 32.225 36.4114 32.6473 36.839 32.9591C37.6339 33.538 38.5234 34.0155 39.4225 34.4255C39.9899 34.6839 40.6493 34.8461 41.2657 34.8618C42.2879 34.8877 43.316 34.8066 44.3282 34.6877C45.8812 34.5065 47.2535 33.8613 48.4973 33.0051C49.6412 32.2166 50.7636 31.4092 51.6739 30.3317C52.4771 29.3798 53.251 28.4204 53.8367 27.3305C54.1778 26.6953 54.4808 26.04 54.7839 25.3847ZM59.6683 30.2609L59.6689 30.2597C59.5999 30.473 59.5149 30.7175 59.4216 30.9858L59.4213 30.9866L59.4212 30.9871C59.1721 31.7036 58.8643 32.5888 58.6458 33.4972C58.475 34.2089 58.4046 34.9464 58.3342 35.684L58.3342 35.684L58.3342 35.684L58.3342 35.6841L58.3342 35.6841L58.3342 35.6842L58.3342 35.6843C58.305 35.9903 58.2758 36.2963 58.2394 36.6005C58.0525 38.1679 58.3206 39.713 58.8372 41.203C59.1734 42.172 59.6692 43.1158 60.2303 43.9915C60.9804 45.162 62.0027 46.1303 63.2444 46.8133C64.8597 47.7022 66.6237 47.8122 68.3703 47.594C69.025 47.5121 69.6594 47.3159 70.2944 47.1194L70.2946 47.1194C70.6427 47.0117 70.991 46.9039 71.343 46.8149C72.4618 46.5314 73.3915 45.9155 74.2567 45.2431C74.8156 44.8093 75.3256 44.3174 75.8359 43.8252C76.1477 43.5246 76.4595 43.2238 76.7827 42.9361C77.5892 42.2185 78.1306 41.3146 78.6694 40.4151L78.6694 40.415L78.6695 40.4149L78.6695 40.4148L78.6696 40.4147C78.7638 40.2574 78.858 40.1002 78.9535 39.9442C79.1536 39.617 79.268 39.2404 79.383 38.8623C79.4615 38.6041 79.5402 38.3451 79.6465 38.1008C80.2258 36.7708 80.323 35.3351 80.3411 33.921C80.3607 32.3331 80.1833 30.73 80.0055 29.1396C79.899 28.1885 79.7201 27.2211 79.4114 26.3083C78.7294 24.2915 78.0127 22.2786 76.7435 20.4903C76.0443 19.5068 75.2665 18.5816 74.2481 17.92C73.1385 17.1987 71.895 17.1707 70.6597 17.4763C68.7632 17.9451 67.419 19.1994 66.1467 20.5062C64.5181 22.1797 63.2398 24.1244 61.9948 26.0775C61.4776 26.8884 61.0239 27.7388 60.5016 28.7177L60.5016 28.7177L60.5016 28.7178L60.5015 28.7179C60.2456 29.1975 59.9733 29.7079 59.6689 30.2597L59.6691 30.2591L59.6683 30.2609ZM49.6934 41.7497C52.1243 42.7762 53.899 44.4648 55.4207 46.4217C56.2072 47.4336 56.7112 48.5902 57.2177 49.7525C57.2685 49.8691 57.3193 49.9857 57.3704 50.1022C58.176 51.9388 58.2742 53.8263 58.3729 55.7253L58.373 55.7256C58.3902 56.0577 58.4075 56.3901 58.4286 56.7227C58.5025 57.8845 58.6662 59.0567 58.942 60.1951C59.2198 61.3409 59.6417 62.466 60.0886 63.5695C60.2519 63.9729 60.4681 64.3571 60.6843 64.7413L60.6844 64.7414L60.6844 64.7414C60.8931 65.1123 61.1019 65.4833 61.2632 65.8716C61.8525 67.2897 62.4362 68.7169 62.8794 70.1763C63.1911 71.2036 63.3697 72.2903 63.4199 73.3525C63.4745 74.4933 63.3611 75.6433 63.2303 76.7755C63.0957 77.9414 62.6848 79.0316 62.1179 80.0583C61.6263 80.9507 60.9938 81.7244 60.2431 82.4288C59.4357 83.1859 58.6035 83.9193 57.565 84.3326C55.4173 85.1869 53.2159 85.8293 50.7957 85.6642C48.8529 85.5315 46.9546 85.154 45.1427 84.4838C44.1208 84.1065 43.1559 83.564 42.1937 83.023C41.8965 82.8559 41.5996 82.6889 41.3013 82.527C39.6566 81.635 38.3185 80.3831 36.9791 79.1301L36.979 79.13L36.9789 79.1299L36.9788 79.1298C36.5922 78.7681 36.2055 78.4064 35.8113 78.0531C35.1535 77.4637 34.3807 76.9889 33.6154 76.5188L33.6133 76.5175C33.4869 76.4398 33.3607 76.3623 33.2353 76.2844C32.9101 76.0826 32.5583 75.9241 32.2062 75.7654L32.206 75.7653L32.2058 75.7652L32.2056 75.7651C31.9837 75.6651 31.7616 75.565 31.546 75.4539C30.2336 74.7771 28.8261 74.487 27.3905 74.2394C26.7025 74.1212 26.025 73.9369 25.347 73.7524L25.3469 73.7523C24.9376 73.641 24.5281 73.5295 24.1161 73.4326C22.4357 73.0381 20.9335 72.2215 19.4429 71.4111L19.1566 71.2556C18.1748 70.7233 17.2844 69.9944 16.4336 69.265C15.5997 68.5501 14.7841 67.7825 14.111 66.9288C14.0069 66.7967 13.9008 66.6653 13.7944 66.5336C13.1924 65.788 12.5826 65.0329 12.2861 64.0972C12.141 63.6393 11.9603 63.1908 11.7796 62.7422C11.6869 62.5123 11.5943 62.2823 11.5064 62.051C10.8498 60.3242 10.8406 58.5836 11.1658 56.8256C11.3351 55.9111 11.5804 55.036 12.0114 54.2117C12.5762 53.1301 13.2893 52.1589 14.223 51.364C15.0084 50.6956 15.8109 50.0363 16.6709 49.4626C17.3824 48.9872 18.159 48.5741 18.9623 48.2545C20.0514 47.8201 21.1774 47.4528 22.3162 47.1487C22.8884 46.9959 23.4744 46.8886 24.0605 46.7813L24.0606 46.7813C24.5521 46.6912 25.0438 46.6012 25.5276 46.4843C26.0202 46.3657 26.5007 46.2054 26.9815 46.0449L26.9816 46.0449L26.9817 46.0448L26.9818 46.0448C27.272 45.9479 27.5624 45.851 27.8556 45.7633C30.3598 45.0131 32.7098 43.9449 34.8942 42.5825C36.429 41.6247 38.0846 40.9389 39.843 40.5184C41.1861 40.1974 42.5923 40.1585 44.0098 40.2499C46.0328 40.3799 47.9626 40.8025 49.693 41.7506L49.6934 41.7497ZM12.3501 26.8154C13.3568 24.543 14.9086 22.666 16.7223 21.0064C17.6547 20.1527 18.6869 19.3476 19.8132 18.7618C21.2601 18.0099 22.8381 17.3592 24.5846 17.7688C25.241 17.9232 25.9115 18.318 26.4256 18.7664C27.331 19.5563 27.8781 20.5869 28.3262 21.6997C29.0431 23.4822 29.5304 25.3062 29.7291 27.1747C29.8928 28.7142 29.9089 30.2696 29.889 31.8132C29.8715 33.1479 29.7893 34.4906 29.5831 35.8023C29.4812 36.4518 29.2335 37.0766 28.9867 37.6989L28.9866 37.699C28.906 37.9024 28.8254 38.1055 28.7501 38.3092C28.2853 39.5622 27.6041 40.7058 26.6733 41.6604C26.0523 42.2985 25.3155 42.8554 24.5507 43.3312C23.0767 44.249 21.4489 44.7414 19.6313 44.4454C19.5488 44.432 19.4661 44.4188 19.3832 44.4057L19.3823 44.4055C18.7413 44.3036 18.0913 44.2003 17.4902 43.9759C16.1514 43.4771 15.2183 42.4625 14.2795 41.4419L14.1894 41.3439C12.683 39.7077 12.0248 37.7 11.4808 35.7037C10.8919 33.5459 10.9306 31.3209 11.4973 29.1696C11.6429 28.617 11.8548 28.0832 12.0667 27.5497C12.1638 27.3053 12.2608 27.061 12.3514 26.8149L12.3501 26.8154ZM81.6749 67.0148C83.0997 65.7644 84.1483 64.2143 85.0096 62.5243L85.0091 62.523C85.0932 62.2728 85.177 62.0223 85.2608 61.7718C85.4062 61.3371 85.5517 60.9022 85.699 60.4681C86.1493 59.1392 86.4608 57.784 86.5791 56.3702C86.754 54.2715 86.7775 52.2018 85.8372 50.1966C85.3058 49.0646 84.5337 48.1486 83.3283 47.6617C82.9808 47.522 82.5702 47.4794 82.1944 47.4867C81.9765 47.4906 81.7566 47.4901 81.5364 47.4895C80.8006 47.4877 80.06 47.4858 79.3703 47.6505C76.4303 48.3515 73.7775 49.6836 71.3618 51.3753C71.2002 51.4883 71.0381 51.601 70.8758 51.7138C69.2849 52.8193 67.6784 53.9356 66.4947 55.4945C66.3544 55.6793 66.2081 55.8603 66.0619 56.0415C65.5707 56.6497 65.0788 57.2589 64.8065 58.0131C64.7615 58.1372 64.6969 58.2554 64.6324 58.3733C64.5474 58.5285 64.4628 58.6832 64.4234 58.8506C64.3675 59.0877 64.3093 59.3246 64.251 59.5616C64.036 60.4357 63.8206 61.3111 63.7227 62.2024C63.5702 63.5956 64.0244 64.9278 64.5736 66.2405C64.9752 67.1998 65.583 67.9868 66.3367 68.6926C67.668 69.9385 69.32 70.4755 71.066 70.6232C72.8034 70.7701 74.4871 70.5466 76.1619 70.0078C78.227 69.3435 80.0903 68.4065 81.6749 67.0148Z" fill="#F3A79F"/>
<path d="M55.1841 24.5279L60.601 27.108C60.6079 27.0934 60.6148 27.0788 60.6216 27.0642L55.1841 24.5279ZM54.7839 25.3847L60.2297 27.9032L60.2297 27.9032L54.7839 25.3847ZM55.2667 24.3506L49.8296 21.8135L49.8292 21.8143L55.2667 24.3506ZM57.4531 18.9375L51.6864 17.2806L51.6863 17.281L57.4531 18.9375ZM58.2879 15.2187L64.2248 16.0866L64.2252 16.0843L58.2879 15.2187ZM57.8053 10.6279L52.3745 13.1787L52.3757 13.1813L57.8053 10.6279ZM55.6533 8.42137L57.8177 2.82536L57.8176 2.82532L55.6533 8.42137ZM53.6819 7.99174L52.8447 13.933L52.8479 13.9335L53.6819 7.99174ZM53.5114 7.96771L52.6663 13.9079L52.6742 13.909L53.5114 7.96771ZM48.0223 8.35488L49.6188 14.1386L49.6193 14.1384L48.0223 8.35488ZM43.5507 9.96667L41.1983 4.44706L41.1957 4.44814L43.5507 9.96667ZM40.3669 11.6888L43.7666 16.6327L43.768 16.6317L40.3669 11.6888ZM36.6814 14.8005L32.0417 10.9961L32.0396 10.9987L36.6814 14.8005ZM35.3543 16.6273L30.154 13.6346L30.1526 13.6369L35.3543 16.6273ZM34.1333 19.1648L39.6833 21.4446L39.6848 21.4409L34.1333 19.1648ZM33.5695 21.1064L27.666 20.0345L27.6651 20.0399L33.5695 21.1064ZM33.3292 23.0152L39.2841 23.7499C39.29 23.7021 39.2953 23.6542 39.3 23.6063L33.3292 23.0152ZM33.3292 23.0152L27.3744 22.2805C27.3696 22.3194 27.3651 22.3584 27.3611 22.3974L33.3292 23.0152ZM33.3292 23.0157L27.3611 22.3978C27.3601 22.4067 27.3592 22.4156 27.3584 22.4245L33.3292 23.0157ZM33.26 23.6914L27.2953 23.0412L27.2947 23.047L33.26 23.6914ZM33.6414 27.5878L39.3271 25.6714L39.3265 25.6697L33.6414 27.5878ZM33.855 28.2464L28.1372 30.065L28.1372 30.065L33.855 28.2464ZM35.3522 31.3623L30.8286 35.304L30.8299 35.3055L35.3522 31.3623ZM35.7217 31.8044L31.0782 35.6041C31.2286 35.788 31.3899 35.9628 31.561 36.1275L35.7217 31.8044ZM35.7217 31.8045L31.561 36.1275L35.7217 31.8045ZM35.7217 31.8045L40.3652 28.0048C40.2148 27.8209 40.0536 27.6462 39.8824 27.4814L35.7217 31.8045ZM36.839 32.9591L33.3043 37.8073L33.3067 37.8091L36.839 32.9591ZM39.4225 34.4255L36.9334 39.8848L36.9357 39.8858L39.4225 34.4255ZM41.2657 34.8618L41.1127 40.8599L41.1137 40.8599L41.2657 34.8618ZM44.3282 34.6877L43.6329 28.7281L43.6284 28.7287L44.3282 34.6877ZM48.4973 33.0051L51.8994 37.9473L51.9027 37.9451L48.4973 33.0051ZM51.6739 30.3317L56.2571 34.2039L56.2597 34.2008L51.6739 30.3317ZM53.8367 27.3305L59.122 30.1707L59.1231 30.1686L53.8367 27.3305ZM59.6683 30.2609L54.2514 27.6808C52.8564 30.6094 54.0418 34.1165 56.9275 35.5983C59.8132 37.0801 63.3541 36 64.9214 33.1599L59.6683 30.2609ZM59.4216 30.9858L53.7543 29.0156C53.752 29.0222 53.7497 29.0288 53.7475 29.0354L59.4216 30.9858ZM59.4213 30.9866L65.0877 32.9596C65.0903 32.9521 65.0929 32.9446 65.0955 32.937L59.4213 30.9866ZM59.4212 30.9871L53.7548 29.0142L53.7539 29.0169L59.4212 30.9871ZM58.6458 33.4972L52.8123 32.0935L52.8114 32.0972L58.6458 33.4972ZM58.3342 35.684L64.2891 36.4187C64.2959 36.3638 64.3019 36.3089 64.3071 36.2539L58.3342 35.684ZM58.3342 35.684L52.3794 34.9493L58.3342 35.684ZM58.3342 35.6841L64.2515 36.6768C64.2659 36.5911 64.2784 36.505 64.2891 36.4188L58.3342 35.6841ZM58.3342 35.6841L52.4169 34.6914L58.3342 35.6841ZM58.3342 35.6842L64.2515 36.6769L58.3342 35.6842ZM58.3342 35.6843L52.4169 34.6916C52.3933 34.8319 52.3748 34.973 52.3613 35.1146L58.3342 35.6843ZM58.2394 36.6005L52.2819 35.8881L52.2817 35.8897L58.2394 36.6005ZM58.8372 41.203L53.1683 43.1685L53.1686 43.1694L58.8372 41.203ZM60.2303 43.9915L55.1781 47.2281L55.1786 47.229L60.2303 43.9915ZM63.2444 46.8133L66.1372 41.5568L66.1361 41.5561L63.2444 46.8133ZM68.3703 47.594L69.1141 53.5477L69.1148 53.5476L68.3703 47.594ZM70.2944 47.1194L72.0677 52.8514C72.0968 52.8424 72.1258 52.8332 72.1547 52.8238L70.2944 47.1194ZM70.2946 47.1194L68.5213 41.3874C68.4922 41.3964 68.4632 41.4056 68.4342 41.4151L70.2946 47.1194ZM71.343 46.8149L72.8139 52.6318L72.8167 52.6311L71.343 46.8149ZM74.2567 45.2431L70.5778 40.5033L70.5747 40.5057L74.2567 45.2431ZM75.8359 43.8252L80.001 48.144L80.0011 48.1439L75.8359 43.8252ZM76.7827 42.9361L72.7943 38.4536L72.7933 38.4545L76.7827 42.9361ZM78.6694 40.4151L83.8167 43.4982C83.9145 43.3349 84.0045 43.167 84.0863 42.9952L78.6694 40.4151ZM78.6694 40.415L73.2525 37.8349L78.6694 40.415ZM78.6695 40.4149L84.0864 42.995L78.6695 40.4149ZM78.6695 40.4148L73.2526 37.8347L78.6695 40.4148ZM78.6696 40.4147L73.5224 37.3314C73.4246 37.4948 73.3345 37.6627 73.2527 37.8346L78.6696 40.4147ZM78.9535 39.9442L84.0711 43.0762L84.0721 43.0746L78.9535 39.9442ZM79.383 38.8623L73.6423 37.1173L73.6423 37.1174L79.383 38.8623ZM79.6465 38.1008L74.1457 35.7047L74.1447 35.707L79.6465 38.1008ZM80.3411 33.921L86.3406 33.9977L86.3406 33.9951L80.3411 33.921ZM80.0055 29.1396L85.9684 28.4731L85.9683 28.4717L80.0055 29.1396ZM79.4114 26.3083L73.7275 28.2303L73.7276 28.2305L79.4114 26.3083ZM76.7435 20.4903L81.6362 17.0175L81.6337 17.0139L76.7435 20.4903ZM74.2481 17.92L70.978 22.9505L70.979 22.9512L74.2481 17.92ZM70.6597 17.4763L72.0997 23.3009L72.1002 23.3008L70.6597 17.4763ZM66.1467 20.5062L61.8476 16.3207L61.8467 16.3216L66.1467 20.5062ZM61.9948 26.0775L67.0534 29.304L67.0542 29.3028L61.9948 26.0775ZM60.5016 28.7177L55.2079 25.8933C55.165 25.9738 55.1239 26.0552 55.0847 26.1376L60.5016 28.7177ZM60.5016 28.7177L65.9185 31.2978L60.5016 28.7177ZM60.5016 28.7178L65.7281 31.6644C65.7958 31.5445 65.8593 31.4222 65.9185 31.2979L60.5016 28.7178ZM60.5015 28.7179L55.2749 25.7712C55.2521 25.8117 55.2297 25.8525 55.2078 25.8935L60.5015 28.7179ZM59.6691 30.2591L65.3772 32.1078C66.3511 29.1006 64.825 25.8537 61.8883 24.6846C58.9515 23.5155 55.6114 24.8253 54.2522 27.679L59.6691 30.2591ZM55.4207 46.4217L60.1581 42.7397L60.1573 42.7386L55.4207 46.4217ZM49.6934 41.7497L52.0274 36.2223C49.0713 34.9741 45.6563 36.2726 44.2765 39.1696L49.6934 41.7497ZM57.2177 49.7525L62.7182 47.3556L62.7181 47.3556L57.2177 49.7525ZM57.3704 50.1022L62.8651 47.6921L62.8649 47.6915L57.3704 50.1022ZM58.3729 55.7253L64.3697 55.5283C64.3685 55.4901 64.3668 55.4519 64.3648 55.4137L58.3729 55.7253ZM58.373 55.7256L52.3762 55.9226C52.3774 55.9608 52.3791 55.9991 52.3811 56.0373L58.373 55.7256ZM58.4286 56.7227L52.4406 57.1025L52.4407 57.1036L58.4286 56.7227ZM58.942 60.1951L53.1106 61.6076L53.1109 61.6089L58.942 60.1951ZM60.0886 63.5695L65.6502 61.3182L65.6499 61.3175L60.0886 63.5695ZM60.6843 64.7413L65.9986 61.9559C65.9709 61.9031 65.9425 61.8507 65.9132 61.7988L60.6843 64.7413ZM60.6844 64.7414L55.3701 67.5269C55.4217 67.6252 55.4759 67.7221 55.5328 67.8174L60.6844 64.7414ZM60.6844 64.7414L65.9133 61.7988C65.8881 61.7541 65.8623 61.7096 65.8359 61.6655L60.6844 64.7414ZM61.2632 65.8716L55.7221 68.173L55.7225 68.1741L61.2632 65.8716ZM62.8794 70.1763L68.621 68.4343L68.6205 68.4327L62.8794 70.1763ZM63.4199 73.3525L57.4266 73.6361L57.4268 73.6394L63.4199 73.3525ZM63.2303 76.7755L57.2699 76.0867L57.2698 76.0878L63.2303 76.7755ZM62.1179 80.0583L56.8653 77.1582L56.8626 77.1632L62.1179 80.0583ZM60.2431 82.4288L64.3473 86.8055L64.3487 86.8042L60.2431 82.4288ZM57.565 84.3326L59.7827 89.9077L59.7836 89.9073L57.565 84.3326ZM50.7957 85.6642L50.387 91.6502L50.3872 91.6503L50.7957 85.6642ZM45.1427 84.4838L47.2243 78.8564L47.2208 78.8552L45.1427 84.4838ZM42.1937 83.023L45.1343 77.793L45.1343 77.793L42.1937 83.023ZM41.3013 82.527L44.1635 77.2537L44.1618 77.2528L41.3013 82.527ZM36.9791 79.1301L32.5717 83.2013C32.6706 83.3084 32.7735 83.4119 32.88 83.5116L36.9791 79.1301ZM36.979 79.13L32.5716 83.2012L36.979 79.13ZM36.9788 79.1298L41.3862 75.0585C41.2872 74.9514 41.1843 74.8479 41.0778 74.7482L36.9788 79.1298ZM35.8113 78.0531L31.8069 82.5214L31.8073 82.5217L35.8113 78.0531ZM33.6154 76.5188L36.756 71.4064C36.7493 71.4023 36.7426 71.3982 36.7359 71.3941L33.6154 76.5188ZM33.6133 76.5175L30.4725 81.6298C30.4792 81.6339 30.486 81.638 30.4927 81.6422L33.6133 76.5175ZM33.2353 76.2844L36.4007 71.1874L36.3988 71.1861L33.2353 76.2844ZM32.2062 75.7654L29.6261 81.1823C29.6641 81.2004 29.7023 81.2181 29.7407 81.2354L32.2062 75.7654ZM32.206 75.7653L34.7861 70.3484L32.206 75.7653ZM32.2058 75.7652L34.7859 70.3483L32.2058 75.7652ZM32.2056 75.7651L34.7857 70.3482C34.7476 70.33 34.7094 70.3123 34.671 70.295L32.2056 75.7651ZM31.546 75.4539L28.7959 80.7866L28.7991 80.7882L31.546 75.4539ZM27.3905 74.2394L28.4103 68.3267L28.4061 68.326L27.3905 74.2394ZM25.347 73.7524L26.9225 67.9629C26.8671 67.9478 26.8116 67.9336 26.7558 67.9201L25.347 73.7524ZM25.3469 73.7523L23.7714 79.5418C23.8268 79.5569 23.8823 79.5711 23.9381 79.5846L25.3469 73.7523ZM24.1161 73.4326L25.4901 67.592L25.4873 67.5914L24.1161 73.4326ZM19.4429 71.4111L22.3086 66.1397L22.3067 66.1387L19.4429 71.4111ZM19.1566 71.2556L22.0205 65.9832L22.0162 65.9809L19.1566 71.2556ZM16.4336 69.265L20.339 64.71L20.3388 64.7099L16.4336 69.265ZM14.111 66.9288L9.3992 70.6434L9.39924 70.6435L14.111 66.9288ZM13.7944 66.5336L18.4624 62.764L18.4624 62.764L13.7944 66.5336ZM12.2861 64.0972L18.0059 62.2851L18.0057 62.2844L12.2861 64.0972ZM11.7796 62.7422L17.3449 60.5001L17.3449 60.5L11.7796 62.7422ZM11.5064 62.051L17.1151 59.9199L17.1147 59.9188L11.5064 62.051ZM11.1658 56.8256L5.26605 55.7332L5.26581 55.7345L11.1658 56.8256ZM12.0114 54.2117L17.3285 56.9916L17.3299 56.989L12.0114 54.2117ZM14.223 51.364L10.3343 46.7947L10.3334 46.7955L14.223 51.364ZM16.6709 49.4626L20.0009 54.4537L20.0038 54.4517L16.6709 49.4626ZM18.9623 48.2545L21.1808 53.8293L21.1851 53.8276L18.9623 48.2545ZM22.3162 47.1487L20.769 41.3516L20.7681 41.3518L22.3162 47.1487ZM24.0605 46.7813L23.2025 40.8429C23.128 40.8537 23.0537 40.8659 22.9797 40.8794L24.0605 46.7813ZM24.0606 46.7813L24.9186 52.7196C24.9931 52.7088 25.0674 52.6967 25.1415 52.6831L24.0606 46.7813ZM25.5276 46.4843L24.1233 40.651L24.1187 40.6521L25.5276 46.4843ZM26.9815 46.0449L28.8811 51.7362C28.9167 51.7244 28.9521 51.7122 28.9875 51.6996L26.9815 46.0449ZM26.9816 46.0449L24.9757 40.3901L26.9816 46.0449ZM26.9817 46.0448L28.9876 51.6996L26.9817 46.0448ZM26.9818 46.0448L25.0822 40.3534C25.0466 40.3653 25.0112 40.3775 24.9758 40.3901L26.9818 46.0448ZM27.8556 45.7633L29.5762 51.5113L29.5773 51.5109L27.8556 45.7633ZM34.8942 42.5825L38.0695 47.6735L38.0708 47.6726L34.8942 42.5825ZM39.843 40.5184L38.4484 34.6827L38.4475 34.6829L39.843 40.5184ZM44.0098 40.2499L43.6237 46.2375L43.6252 46.2376L44.0098 40.2499ZM49.693 41.7506L46.81 47.0126C48.2574 47.8056 49.9674 47.9674 51.5378 47.4599C53.1082 46.9525 54.4002 45.8207 55.1099 44.3307L49.693 41.7506ZM16.7223 21.0064L20.7727 25.433L20.7742 25.4316L16.7223 21.0064ZM12.3501 26.8154L6.86437 24.385C5.90451 26.5515 6.30968 29.08 7.89844 30.8381C9.48719 32.5963 11.9619 33.2546 14.2143 32.5184L12.3501 26.8154ZM19.8132 18.7618L17.0464 13.4378L17.0446 13.4387L19.8132 18.7618ZM24.5846 17.7688L25.9578 11.9281L25.9548 11.9274L24.5846 17.7688ZM26.4256 18.7664L30.3701 14.2452L30.3696 14.2448L26.4256 18.7664ZM28.3262 21.6997L33.8929 19.4609L33.8918 19.4583L28.3262 21.6997ZM29.7291 27.1747L35.6955 26.5405L35.6955 26.5402L29.7291 27.1747ZM29.889 31.8132L35.8885 31.8918L35.8885 31.8907L29.889 31.8132ZM29.5831 35.8023L23.6559 34.8705L23.6556 34.8722L29.5831 35.8023ZM28.9867 37.6989L34.4036 40.279C34.4612 40.1581 34.5147 40.0352 34.5641 39.9107L28.9867 37.6989ZM28.9866 37.699L23.5697 35.1188C23.5121 35.2398 23.4586 35.3626 23.4092 35.4871L28.9866 37.699ZM28.7501 38.3092L34.3755 40.396L34.3775 40.3907L28.7501 38.3092ZM26.6733 41.6604L22.3773 37.4718L22.3733 37.4758L26.6733 41.6604ZM24.5507 43.3312L21.3811 38.2367L21.3792 38.2379L24.5507 43.3312ZM19.6313 44.4454L20.5956 38.5234L20.5932 38.523L19.6313 44.4454ZM19.3832 44.4057L18.4405 50.3312L18.4411 50.3312L19.3832 44.4057ZM19.3823 44.4055L20.325 38.48L20.3243 38.4799L19.3823 44.4055ZM17.4902 43.9759L19.5882 38.3547L19.5853 38.3536L17.4902 43.9759ZM14.2795 41.4419L18.6956 37.3801L18.6949 37.3793L14.2795 41.4419ZM14.1894 41.3439L18.6047 37.2813L18.6035 37.28L14.1894 41.3439ZM11.4808 35.7037L17.2697 34.1263L17.2691 34.1238L11.4808 35.7037ZM11.4973 29.1696L5.69528 27.6409L5.69515 27.6414L11.4973 29.1696ZM12.0667 27.5497L17.6431 29.7643L17.6431 29.7643L12.0667 27.5497ZM12.3514 26.8149L17.9817 28.8886C18.7766 26.7303 18.2678 24.3075 16.6717 22.6514C15.0757 20.9953 12.6734 20.3973 10.4873 21.1119L12.3514 26.8149ZM85.0096 62.5243L90.3553 65.2489C91.125 63.7388 91.2201 61.9735 90.617 60.3894L85.0096 62.5243ZM81.6749 67.0148L77.7173 62.5051L77.7155 62.5066L81.6749 67.0148ZM85.0091 62.523L79.3219 60.6111C78.879 61.9286 78.9072 63.3589 79.4018 64.6579L85.0091 62.523ZM85.2608 61.7718L90.9509 63.6752L90.9509 63.6751L85.2608 61.7718ZM85.699 60.4681L91.3806 62.3968L91.3818 62.3933L85.699 60.4681ZM86.5791 56.3702L92.5582 56.8706L92.5584 56.8686L86.5791 56.3702ZM85.8372 50.1966L91.2697 47.6493L91.2684 47.6466L85.8372 50.1966ZM83.3283 47.6617L85.5755 42.0984L85.5659 42.0946L83.3283 47.6617ZM82.1944 47.4867L82.3024 53.4858L82.3114 53.4856L82.1944 47.4867ZM81.5364 47.4895L81.5213 53.4895L81.5214 53.4895L81.5364 47.4895ZM79.3703 47.6505L80.7618 53.4869L80.7638 53.4865L79.3703 47.6505ZM71.3618 51.3753L74.8017 56.2913L74.8035 56.29L71.3618 51.3753ZM70.8758 51.7138L67.4519 46.7866L67.4519 46.7866L70.8758 51.7138ZM66.4947 55.4945L61.7162 51.866L61.7162 51.866L66.4947 55.4945ZM66.0619 56.0415L70.73 59.8109L70.73 59.8109L66.0619 56.0415ZM64.8065 58.0131L70.4473 60.0579L70.45 60.0506L64.8065 58.0131ZM64.6324 58.3733L59.3689 55.493L59.3689 55.4931L64.6324 58.3733ZM64.4234 58.8506L70.2633 60.2274L70.2644 60.2227L64.4234 58.8506ZM64.251 59.5616L58.4246 58.1285L58.4246 58.1285L64.251 59.5616ZM63.7227 62.2024L57.7586 61.5472L57.7583 61.5495L63.7227 62.2024ZM64.5736 66.2405L59.0384 68.5561L59.0392 68.5579L64.5736 66.2405ZM66.3367 68.6926L62.2354 73.0721L62.2369 73.0735L66.3367 68.6926ZM71.066 70.6232L70.5602 76.6018L70.5606 76.6019L71.066 70.6232ZM76.1619 70.0078L74.3246 64.296L74.3241 64.2961L76.1619 70.0078ZM49.7671 21.9478C49.6146 22.2681 49.468 22.5852 49.338 22.8662L60.2297 27.9032C60.3644 27.6119 60.4826 27.3566 60.601 27.108L49.7671 21.9478ZM49.8292 21.8143L49.7465 21.9916L60.6216 27.0642L60.7043 26.8869L49.8292 21.8143ZM51.6863 17.281C51.2939 18.6471 50.6842 19.982 49.8296 21.8135L60.7039 26.8878C61.4954 25.1916 62.5246 23.0145 63.2199 20.594L51.6863 17.281ZM52.351 14.3508C52.2193 15.2522 51.9954 16.2049 51.6864 17.2806L63.2198 20.5943C63.6173 19.2106 63.9889 17.7004 64.2248 16.0866L52.351 14.3508ZM52.3757 13.1813C52.3806 13.1917 52.4028 13.2333 52.4144 13.3796C52.4281 13.5543 52.424 13.8506 52.3507 14.3531L64.2252 16.0843C64.5277 14.0089 64.6582 11.101 63.2348 8.07446L52.3757 13.1813ZM53.4889 14.0174C53.0748 13.8572 52.7515 13.6086 52.5435 13.3842C52.3623 13.1888 52.3254 13.0742 52.3745 13.1787L63.236 8.07704C62.4081 6.31444 60.8247 3.9884 57.8177 2.82536L53.4889 14.0174ZM52.8479 13.9335C53.0218 13.9579 53.1483 13.9758 53.2677 13.9942C53.3828 14.012 53.4624 14.026 53.5201 14.0375C53.6433 14.0619 53.6079 14.0634 53.489 14.0174L57.8176 2.82532C56.4395 2.29231 55.0512 2.12511 54.5159 2.04998L52.8479 13.9335ZM52.6742 13.909L52.8447 13.933L54.5192 2.05044L54.3487 2.02641L52.6742 13.909ZM49.6193 14.1384C50.684 13.8444 51.6987 13.7702 52.6663 13.9079L54.3566 2.02754C51.5838 1.63302 48.9018 1.88745 46.4252 2.57134L49.6193 14.1384ZM45.9031 15.4863C47.2311 14.9203 48.4493 14.4614 49.6188 14.1386L46.4257 2.57119C44.5374 3.09245 42.775 3.77507 41.1983 4.44706L45.9031 15.4863ZM43.768 16.6317C44.3587 16.2253 45.0797 15.8377 45.9057 15.4852L41.1957 4.44814C39.7985 5.04438 38.3452 5.79674 36.9657 6.74591L43.768 16.6317ZM41.321 18.605C41.7405 18.0933 42.3897 17.5795 43.7666 16.6327L36.9671 6.74496C35.6865 7.62561 33.6787 8.9998 32.0417 10.9961L41.321 18.605ZM40.5547 19.6201C40.652 19.4509 40.8324 19.2015 41.3231 18.6024L32.0396 10.9987C31.5759 11.5648 30.8029 12.507 30.154 13.6346L40.5547 19.6201ZM39.6848 21.4409C39.9739 20.7359 40.2594 20.1337 40.556 19.6177L30.1526 13.6369C29.515 14.746 29.0042 15.8583 28.5818 16.8887L39.6848 21.4409ZM39.473 22.1782C39.5225 21.9059 39.5976 21.6532 39.6833 21.4446L28.5833 16.885C28.1598 17.916 27.8571 18.9826 27.666 20.0345L39.473 22.1782ZM39.3 23.6063C39.3674 22.9255 39.4102 22.5258 39.474 22.1729L27.6651 20.0399C27.5016 20.945 27.4177 21.8254 27.3584 22.424L39.3 23.6063ZM39.2841 23.7499L39.2841 23.7499L27.3744 22.2804L27.3744 22.2805L39.2841 23.7499ZM39.2973 23.6335L39.2973 23.6331L27.3611 22.3974L27.3611 22.3978L39.2973 23.6335ZM39.2247 24.3416C39.2529 24.0823 39.2781 23.8273 39.3 23.6068L27.3584 22.4245C27.3355 22.6549 27.3161 22.8508 27.2953 23.0412L39.2247 24.3416ZM39.3265 25.6697C39.2233 25.3637 39.1611 24.9306 39.2253 24.3358L27.2947 23.047C27.075 25.0807 27.2109 27.2967 27.9562 29.5058L39.3265 25.6697ZM39.5728 26.4279C39.5053 26.2156 39.4198 25.9463 39.3271 25.6714L27.9556 29.5041C28.0099 29.6652 28.0644 29.8361 28.1372 30.065L39.5728 26.4279ZM39.8758 27.4207C39.9854 27.5464 39.9942 27.6084 39.9313 27.4649C39.8982 27.3893 39.8534 27.276 39.7919 27.0988C39.7276 26.9134 39.6638 26.714 39.5728 26.4279L28.1372 30.065C28.4288 30.9816 29.0871 33.3054 30.8286 35.304L39.8758 27.4207ZM40.3652 28.0047C40.2534 27.8681 40.0721 27.6457 39.8745 27.4192L30.8299 35.3055C30.8831 35.3666 30.9457 35.4423 31.0782 35.6041L40.3652 28.0047ZM39.8824 27.4814L39.8824 27.4814L31.561 36.1275L31.561 36.1275L39.8824 27.4814ZM39.8824 27.4814L39.8824 27.4814L31.561 36.1275L31.561 36.1275L39.8824 27.4814ZM40.3738 28.1108C40.4764 28.1856 40.5497 28.2492 40.593 28.289C40.6357 28.3283 40.6551 28.3498 40.6477 28.3419C40.6398 28.3333 40.6154 28.3064 40.5658 28.2477C40.5416 28.219 40.5138 28.1856 40.4799 28.1445C40.4452 28.1025 40.4095 28.0588 40.3652 28.0048L31.0782 35.6042C31.3268 35.9079 32.1466 36.9633 33.3043 37.8073L40.3738 28.1108ZM41.9116 28.9661C41.2335 28.6569 40.7315 28.3713 40.3714 28.1091L33.3067 37.8091C34.5364 38.7047 35.8133 39.3741 36.9334 39.8848L41.9116 28.9661ZM41.4187 28.8638C41.5715 28.8677 41.67 28.8869 41.7214 28.8992C41.7746 28.9119 41.8339 28.9308 41.9093 28.9651L36.9357 39.8858C38.1738 40.4497 39.6235 40.8219 41.1127 40.8599L41.4187 28.8638ZM43.6284 28.7287C42.7518 28.8316 42.0382 28.8795 41.4178 28.8637L41.1137 40.8599C42.5376 40.896 43.8802 40.7815 45.028 40.6468L43.6284 28.7287ZM45.0952 28.0628C44.3781 28.5565 43.9256 28.694 43.6329 28.7281L45.0235 40.6473C47.8367 40.3191 50.1289 39.1661 51.8994 37.9473L45.0952 28.0628ZM47.0907 26.4595C46.7538 26.8583 46.2456 27.2698 45.0919 28.0651L51.9027 37.9451C53.0367 37.1633 54.7734 35.9601 56.2571 34.2039L47.0907 26.4595ZM48.5515 24.4903C48.2882 24.9804 47.8781 25.5263 47.0881 26.4626L56.2597 34.2008C57.0761 33.2333 58.2139 31.8605 59.122 30.1707L48.5515 24.4903ZM49.338 22.8662C49.0224 23.5488 48.7928 24.0409 48.5504 24.4924L59.1231 30.1686C59.5627 29.3497 59.9393 28.5312 60.2297 27.9032L49.338 22.8662ZM54.4158 27.3607L54.4151 27.3619L64.9214 33.1599L64.9221 33.1587L54.4158 27.3607ZM65.089 32.9559C65.1759 32.7057 65.2844 32.3946 65.3774 32.1071L53.9604 28.4123C53.9154 28.5513 53.8538 28.7293 53.7543 29.0156L65.089 32.9559ZM65.0955 32.937L65.0958 32.9362L53.7475 29.0354L53.7472 29.0363L65.0955 32.937ZM65.0875 32.9601L65.0877 32.9596L53.755 29.0137L53.7548 29.0142L65.0875 32.9601ZM64.4793 34.9009C64.6183 34.3231 64.8277 33.7075 65.0885 32.9574L53.7539 29.0169C53.5165 29.6998 53.1104 30.8546 52.8123 32.0935L64.4793 34.9009ZM64.3071 36.2539C64.3846 35.4416 64.4245 35.1291 64.4802 34.8972L52.8114 32.0972C52.5255 33.2888 52.4246 34.4513 52.3614 35.1141L64.3071 36.2539ZM64.2891 36.4187L64.2891 36.4187L52.3794 34.9492L52.3794 34.9493L64.2891 36.4187ZM64.2891 36.4188L64.2891 36.4187L52.3794 34.9493L52.3794 34.9493L64.2891 36.4188ZM64.2891 36.4188L64.2891 36.4188L52.3794 34.9493L52.3794 34.9493L64.2891 36.4188ZM64.2515 36.6768L64.2515 36.6768L52.4169 34.6914L52.4169 34.6914L64.2515 36.6768ZM64.2515 36.6769L64.2515 36.6768L52.4169 34.6914L52.4169 34.6915L64.2515 36.6769ZM64.2515 36.677L64.2515 36.6769L52.4169 34.6915L52.4169 34.6916L64.2515 36.677ZM64.197 37.3128C64.2433 36.9255 64.279 36.548 64.3071 36.254L52.3613 35.1146C52.331 35.4326 52.3083 35.6671 52.2819 35.8881L64.197 37.3128ZM64.5062 39.2375C64.1939 38.3369 64.1472 37.7305 64.1972 37.3112L52.2817 35.8897C51.9577 38.6053 52.4473 41.089 53.1683 43.1685L64.5062 39.2375ZM65.2825 40.755C64.8986 40.1557 64.6463 39.6414 64.5059 39.2366L53.1686 43.1694C53.7005 44.7026 54.4399 46.0758 55.1781 47.2281L65.2825 40.755ZM66.1361 41.5561C65.7865 41.3638 65.501 41.096 65.2819 40.7541L55.1786 47.229C56.4597 49.2279 58.2189 50.8969 60.3528 52.0706L66.1361 41.5561ZM67.6265 41.6403C66.5802 41.771 66.2381 41.6123 66.1372 41.5568L60.3516 52.0699C63.4813 53.7922 66.6672 53.8534 69.1141 53.5477L67.6265 41.6403ZM68.5211 41.3875C68.1823 41.4923 67.99 41.5508 67.818 41.5959C67.6606 41.6372 67.6103 41.6423 67.6258 41.6404L69.1148 53.5476C70.382 53.3892 71.5211 53.0205 72.0677 52.8514L68.5211 41.3875ZM68.4342 41.4151L68.4341 41.4151L72.1547 52.8238L72.1549 52.8237L68.4342 41.4151ZM69.8721 40.998C69.3423 41.132 68.844 41.2876 68.5213 41.3874L72.0678 52.8514C72.4414 52.7358 72.6397 52.6759 72.8139 52.6318L69.8721 40.998ZM70.5747 40.5057C70.2508 40.7574 70.0556 40.8871 69.9267 40.9605C69.812 41.0258 69.8019 41.0158 69.8692 40.9987L72.8167 52.6311C75.1622 52.0368 76.8877 50.7973 77.9387 49.9804L70.5747 40.5057ZM71.6707 39.5065C71.1212 40.0365 70.8397 40.3 70.5778 40.5033L77.9356 49.9829C78.7914 49.3186 79.53 48.5982 80.001 48.144L71.6707 39.5065ZM72.7933 38.4545C72.3657 38.8352 71.968 39.2198 71.6707 39.5066L80.0011 48.1439C80.3273 47.8293 80.5534 47.6124 80.772 47.4177L72.7933 38.4545ZM73.5222 37.3319C73.2328 37.815 73.0792 38.0656 72.9317 38.2736C72.8033 38.4549 72.7609 38.4833 72.7943 38.4536L80.771 47.4186C82.3746 45.9919 83.3525 44.2732 83.8167 43.4982L73.5222 37.3319ZM73.2525 37.8349L73.2525 37.835L84.0863 42.9952L84.0864 42.9951L73.2525 37.8349ZM73.2526 37.8348L73.2525 37.8349L84.0864 42.9951L84.0864 42.995L73.2526 37.8348ZM73.2526 37.8347L73.2526 37.8348L84.0864 42.995L84.0865 42.9949L73.2526 37.8347ZM73.2527 37.8346L73.2526 37.8347L84.0865 42.9949L84.0865 42.9948L73.2527 37.8346ZM73.8359 36.8121C73.723 36.9965 73.6142 37.1782 73.5224 37.3314L83.8167 43.4981C83.9134 43.3366 83.993 43.2039 84.0711 43.0762L73.8359 36.8121ZM73.6423 37.1174C73.6113 37.2194 73.5959 37.2697 73.5822 37.3123C73.5701 37.3502 73.5696 37.3492 73.5784 37.3257C73.5937 37.2846 73.6706 37.0823 73.8349 36.8137L84.0721 43.0746C84.7411 41.9808 85.0521 40.8426 85.1236 40.6072L73.6423 37.1174ZM74.1447 35.707C73.8767 36.3229 73.7028 36.9183 73.6423 37.1173L85.1236 40.6073C85.1443 40.5393 85.1577 40.4951 85.1704 40.4545C85.1824 40.416 85.1893 40.3949 85.1929 40.3841C85.1964 40.3738 85.1945 40.3798 85.1879 40.3975C85.1811 40.4154 85.1681 40.449 85.1483 40.4945L74.1447 35.707ZM74.3415 33.8442C74.3337 34.4618 74.3091 34.8779 74.263 35.2048C74.2194 35.5142 74.1674 35.6549 74.1457 35.7047L85.1473 40.4969C86.2375 37.9939 86.3211 35.5216 86.3406 33.9977L74.3415 33.8442ZM74.0427 29.8061C74.227 31.4555 74.3558 32.6913 74.3415 33.8469L86.3406 33.9951C86.3656 31.9749 86.1396 30.0045 85.9684 28.4731L74.0427 29.8061ZM73.7276 28.2305C73.8561 28.6104 73.9666 29.1269 74.0428 29.8075L85.9683 28.4717C85.8314 27.25 85.5841 25.8319 85.0951 24.3861L73.7276 28.2305ZM71.8507 23.9632C72.549 24.9471 73.0316 26.1724 73.7275 28.2303L85.0952 24.3863C84.4271 22.4105 83.4764 19.6101 81.6362 17.0175L71.8507 23.9632ZM70.979 22.9512C71.0001 22.9649 71.0839 23.0233 71.2358 23.1855C71.3942 23.3547 71.5905 23.5971 71.8532 23.9668L81.6337 17.0139C80.786 15.8215 79.4841 14.1667 77.5172 12.8887L70.979 22.9512ZM72.1002 23.3008C72.2381 23.2667 72.156 23.3079 71.9182 23.2847C71.6394 23.2575 71.2917 23.1545 70.978 22.9505L77.5182 12.8894C74.5478 10.9585 71.4301 11.105 69.2191 11.6518L72.1002 23.3008ZM70.4457 24.6916C71.0466 24.0745 71.409 23.7409 71.7113 23.5198C71.9671 23.3328 72.0747 23.3071 72.0997 23.3009L69.2196 11.6516C65.5156 12.5674 63.1339 14.9996 61.8476 16.3207L70.4457 24.6916ZM67.0542 29.3028C68.3104 27.3321 69.297 25.8721 70.4466 24.6907L61.8467 16.3216C59.7392 18.4873 58.1692 20.9168 56.9353 22.8523L67.0542 29.3028ZM65.7953 31.5421C66.3401 30.5209 66.684 29.8832 67.0534 29.304L56.9361 22.8511C56.2712 23.8937 55.7077 24.9567 55.2079 25.8933L65.7953 31.5421ZM65.9185 31.2978L65.9185 31.2978L55.0847 26.1376L55.0847 26.1376L65.9185 31.2978ZM65.9185 31.2979L65.9185 31.2978L55.0847 26.1376L55.0846 26.1376L65.9185 31.2979ZM65.728 31.6646L65.7281 31.6644L55.275 25.7711L55.2749 25.7712L65.728 31.6646ZM64.9228 33.1575C65.2501 32.5641 65.541 32.0187 65.7952 31.5423L55.2078 25.8935C54.9502 26.3763 54.6965 26.8518 54.4151 27.3619L64.9228 33.1575ZM53.961 28.4105L53.9608 28.4111L65.377 32.1083L65.3772 32.1078L53.961 28.4105ZM65.0852 32.841L65.086 32.8392L54.2522 27.679L54.2514 27.6808L65.0852 32.841ZM60.1573 42.7386C58.2748 40.3177 55.7388 37.7894 52.0274 36.2223L47.3594 47.2772C48.5097 47.7629 49.5233 48.6118 50.6842 50.1049L60.1573 42.7386ZM62.7181 47.3556C62.2609 46.3062 61.4824 44.4435 60.1581 42.7397L50.6834 50.1038C50.932 50.4236 51.1616 50.8743 51.7173 52.1494L62.7181 47.3556ZM62.8649 47.6915C62.8173 47.583 62.7694 47.4733 62.7182 47.3556L51.7173 52.1494C51.7676 52.2648 51.8214 52.3883 51.876 52.5129L62.8649 47.6915ZM64.3648 55.4137C64.274 53.6664 64.1783 50.686 62.8651 47.6921L51.8758 52.5123C52.1738 53.1917 52.2744 53.9862 52.381 56.0369L64.3648 55.4137ZM64.3697 55.5287L64.3697 55.5283L52.3762 55.9222L52.3762 55.9226L64.3697 55.5287ZM64.4166 56.3429C64.398 56.05 64.3824 55.7516 64.3649 55.414L52.3811 56.0373C52.398 56.3638 52.417 56.7302 52.4406 57.1025L64.4166 56.3429ZM64.7733 58.7826C64.5903 58.0269 64.4714 57.2042 64.4165 56.3418L52.4407 57.1036C52.5337 58.5648 52.7422 60.0865 53.1106 61.6076L64.7733 58.7826ZM65.6499 61.3175C65.2288 60.2776 64.9435 59.4843 64.773 58.7813L53.1109 61.6089C53.4961 63.1976 54.0546 64.6543 54.5273 65.8216L65.6499 61.3175ZM65.9132 61.7988C65.7972 61.5925 65.7362 61.4831 65.6859 61.3869C65.6405 61.2998 65.6369 61.2854 65.6502 61.3182L54.527 65.8209C54.859 66.6411 55.2728 67.3594 55.4555 67.6839L65.9132 61.7988ZM65.9986 61.9559L65.9986 61.9559L55.3701 67.5268L55.3701 67.5269L65.9986 61.9559ZM65.8359 61.6655L65.8359 61.6654L55.5328 67.8174L55.5328 67.8174L65.8359 61.6655ZM66.8042 63.5702C66.4827 62.796 66.0909 62.1145 65.9133 61.7988L55.4555 67.684C55.5672 67.8825 55.6278 67.9911 55.6783 68.0874C55.7244 68.1752 55.7315 68.1958 55.7221 68.173L66.8042 63.5702ZM68.6205 68.4327C68.0797 66.6521 67.3859 64.9698 66.8038 63.5691L55.7225 68.1741C56.319 69.6095 56.7927 70.7817 57.1384 71.9199L68.6205 68.4327ZM69.4132 73.0689C69.341 71.5435 69.0853 69.9647 68.621 68.4343L57.1379 71.9183C57.297 72.4426 57.3983 73.0371 57.4266 73.6361L69.4132 73.0689ZM69.1906 77.4643C69.3228 76.3198 69.4932 74.7409 69.4131 73.0657L57.4268 73.6394C57.4558 74.2455 57.3993 74.9669 57.2699 76.0867L69.1906 77.4643ZM67.3705 82.9584C68.2081 81.4414 68.9443 79.599 69.1907 77.4631L57.2698 76.0878C57.2472 76.2838 57.1615 76.6218 56.8653 77.1583L67.3705 82.9584ZM64.3487 86.8042C65.479 85.7436 66.5301 84.4838 67.3732 82.9535L56.8626 77.1632C56.7224 77.4177 56.5086 77.7052 56.1375 78.0534L64.3487 86.8042ZM59.7836 89.9073C61.9896 89.0294 63.5526 87.5506 64.3473 86.8055L56.1389 78.052C55.7584 78.4089 55.5479 78.5915 55.3867 78.7126C55.245 78.8191 55.2418 78.7995 55.3464 78.7579L59.7836 89.9073ZM50.3872 91.6503C54.1367 91.9061 57.332 90.8825 59.7827 89.9077L55.3474 78.7575C53.5026 79.4913 52.2952 79.7526 51.2041 79.6781L50.3872 91.6503ZM43.0611 90.1111C45.468 91.0015 47.9367 91.483 50.387 91.6502L51.2044 79.6781C49.7691 79.5801 48.4412 79.3066 47.2243 78.8564L43.0611 90.1111ZM39.2531 88.253C40.1401 88.7517 41.5193 89.5419 43.0646 90.1124L47.2208 78.8552C46.7223 78.6711 46.1717 78.3763 45.1343 77.793L39.2531 88.253ZM38.4391 87.8003C38.6914 87.9373 38.9493 88.0822 39.2531 88.253L45.1343 77.793C44.8437 77.6296 44.5077 77.4406 44.1635 77.2537L38.4391 87.8003ZM32.88 83.5116C34.1301 84.6811 36.01 86.4829 38.4408 87.8012L44.1618 77.2528C43.3032 76.7871 42.5068 76.0851 41.0781 74.7486L32.88 83.5116ZM32.5716 83.2012L32.5717 83.2013L41.3864 75.0588L41.3863 75.0587L32.5716 83.2012ZM32.5715 83.2011L32.5716 83.2012L41.3863 75.0587L41.3863 75.0586L32.5715 83.2011ZM32.5714 83.2011L32.5715 83.2011L41.3863 75.0586L41.3862 75.0585L32.5714 83.2011ZM31.8073 82.5217C32.1456 82.8248 32.4854 83.1424 32.8798 83.5114L41.0778 74.7482C40.699 74.3939 40.2654 73.9879 39.8153 73.5846L31.8073 82.5217ZM30.4748 81.6312C31.3266 82.1545 31.6216 82.3553 31.8069 82.5214L39.8156 73.5849C38.6855 72.5721 37.4347 71.8233 36.756 71.4064L30.4748 81.6312ZM30.4927 81.6422L30.4948 81.6434L36.7359 71.3941L36.7338 71.3928L30.4927 81.6422ZM30.0698 81.3815C30.2096 81.4683 30.348 81.5533 30.4725 81.6298L36.7541 71.4052C36.6257 71.3264 36.5118 71.2564 36.4007 71.1874L30.0698 81.3815ZM29.7407 81.2354C29.8325 81.2768 29.8981 81.3064 29.9598 81.3348C30.019 81.3621 30.0591 81.3812 30.0877 81.3952C30.1475 81.4245 30.13 81.4188 30.0718 81.3827L36.3988 71.1861C35.6799 70.7401 34.9606 70.4255 34.6717 70.2953L29.7407 81.2354ZM29.6259 81.1822L29.6261 81.1823L34.7863 70.3485L34.7861 70.3484L29.6259 81.1822ZM29.6257 81.1821L29.6259 81.1822L34.7861 70.3484L34.7859 70.3483L29.6257 81.1821ZM29.6254 81.182L29.6257 81.1821L34.7859 70.3483L34.7857 70.3482L29.6254 81.182ZM28.7991 80.7882C29.177 80.9828 29.5425 81.1461 29.7401 81.2351L34.671 70.295C34.4248 70.184 34.3462 70.1471 34.2928 70.1196L28.7991 80.7882ZM26.3708 80.1521C27.7671 80.3929 28.3714 80.5677 28.7959 80.7866L34.296 70.1213C32.0957 68.9866 29.8852 68.581 28.4103 68.3267L26.3708 80.1521ZM23.7716 79.5418C24.4019 79.7133 25.3565 79.9779 26.375 80.1528L28.4061 68.326C28.0486 68.2646 27.6482 68.1604 26.9225 67.9629L23.7716 79.5418ZM23.9381 79.5846L23.9382 79.5846L26.7558 67.9201L26.7557 67.9201L23.9381 79.5846ZM22.7421 79.2731C23.0361 79.3423 23.3453 79.4258 23.7714 79.5418L26.9224 67.9629C26.5299 67.8561 26.0202 67.7167 25.4901 67.592L22.7421 79.2731ZM16.5772 76.6825C17.9501 77.4289 20.1499 78.6646 22.7449 79.2738L25.4873 67.5914C24.7215 67.4116 23.917 67.0141 22.3086 66.1397L16.5772 76.6825ZM16.2928 76.5281L16.5791 76.6835L22.3067 66.1387L22.0205 65.9832L16.2928 76.5281ZM12.5282 73.82C13.3907 74.5595 14.7021 75.6657 16.2971 76.5304L22.0162 65.9809C21.6475 65.781 21.178 65.4294 20.339 64.71L12.5282 73.82ZM9.39924 70.6435C10.4256 71.9454 11.5793 73.0065 12.5284 73.8202L20.3388 64.7099C19.6201 64.0937 19.1426 63.6196 18.8228 63.2141L9.39924 70.6435ZM9.12645 70.3032C9.23661 70.4396 9.32052 70.5436 9.3992 70.6434L18.8229 63.2141C18.6933 63.0498 18.565 62.891 18.4624 62.764L9.12645 70.3032ZM6.5663 65.9093C7.26018 68.0995 8.64615 69.7084 9.12646 70.3032L18.4624 62.764C18.3046 62.5686 18.1976 62.4357 18.1008 62.3099C18.0085 62.19 17.9556 62.1152 17.9249 62.0689C17.8636 61.9766 17.9359 62.0642 18.0059 62.2851L6.5663 65.9093ZM6.21427 64.9844C6.40969 65.4695 6.50199 65.7064 6.56655 65.9101L18.0057 62.2844C17.78 61.5722 17.5109 60.9122 17.3449 60.5001L6.21427 64.9844ZM5.89764 64.1822C6.01023 64.4785 6.12536 64.7638 6.21427 64.9844L17.3449 60.5C17.2485 60.2608 17.1783 60.0861 17.1151 59.9199L5.89764 64.1822ZM5.26581 55.7345C4.80558 58.2229 4.74113 61.1403 5.89805 64.1833L17.1147 59.9188C16.9586 59.508 16.8757 58.9443 17.0657 57.9168L5.26581 55.7345ZM6.69432 51.4317C5.88674 52.9763 5.49688 54.4866 5.26605 55.7332L17.0655 57.9181C17.1733 57.3356 17.2741 57.0957 17.3285 56.9916L6.69432 51.4317ZM10.3334 46.7955C8.69602 48.1895 7.53598 49.8199 6.69293 51.4343L17.3299 56.989C17.6165 56.4402 17.8825 56.1284 18.1125 55.9325L10.3334 46.7955ZM13.3409 44.4715C12.1739 45.2501 11.1503 46.1002 10.3343 46.7947L18.1116 55.9333C18.8665 55.2909 19.448 54.8225 20.0009 54.4537L13.3409 44.4715ZM16.7437 42.6797C15.5328 43.1616 14.3841 43.7745 13.3379 44.4734L20.0038 54.4517C20.3807 54.1999 20.7853 53.9867 21.1808 53.8293L16.7437 42.6797ZM20.7681 41.3518C19.4204 41.7117 18.0675 42.1517 16.7395 42.6814L21.1851 53.8276C22.0354 53.4884 22.9345 53.1938 23.8644 52.9455L20.7681 41.3518ZM22.9797 40.8794C22.434 40.9794 21.6112 41.1268 20.769 41.3516L23.8635 52.9457C24.1657 52.8651 24.5148 52.7979 25.1414 52.6831L22.9797 40.8794ZM23.2026 40.8429L23.2025 40.8429L24.9185 52.7196L24.9186 52.7196L23.2026 40.8429ZM24.1187 40.6521C23.8253 40.723 23.4993 40.7843 22.9797 40.8794L25.1415 52.6831C25.605 52.5982 26.2623 52.4794 26.9365 52.3166L24.1187 40.6521ZM25.082 40.3535C24.5602 40.5277 24.3234 40.6028 24.1233 40.651L26.9319 52.3177C27.717 52.1287 28.4412 51.8831 28.8811 51.7362L25.082 40.3535ZM24.9757 40.3901L24.9756 40.3901L28.9875 51.6996L28.9875 51.6996L24.9757 40.3901ZM24.9758 40.3901L24.9757 40.3901L28.9875 51.6996L28.9876 51.6996L24.9758 40.3901ZM24.9758 40.3901L24.9758 40.3901L28.9876 51.6996L28.9877 51.6996L24.9758 40.3901ZM26.1349 40.0153C25.7368 40.1344 25.3576 40.2615 25.0822 40.3534L28.8813 51.7362C29.1864 51.6343 29.3879 51.5676 29.5762 51.5113L26.1349 40.0153ZM31.719 37.4916C29.9834 38.574 28.1217 39.4201 26.1338 40.0156L29.5773 51.5109C32.5979 50.6061 35.4362 49.3158 38.0695 47.6735L31.719 37.4916ZM38.4475 34.6829C36.0732 35.2507 33.8141 36.184 31.7176 37.4924L38.0708 47.6726C39.0438 47.0654 40.0961 46.6271 41.2384 46.3539L38.4475 34.6829ZM44.3959 34.2624C42.6468 34.1496 40.5866 34.1717 38.4484 34.6827L41.2376 46.3541C41.7856 46.2231 42.5378 46.1675 43.6237 46.2375L44.3959 34.2624ZM52.576 36.4886C49.8429 34.9912 46.9824 34.4285 44.3944 34.2623L43.6252 46.2376C45.0832 46.3312 46.0824 46.6139 46.81 47.0126L52.576 36.4886ZM44.2765 39.1696L44.2761 39.1705L55.1099 44.3307L55.1103 44.3298L44.2765 39.1696ZM12.672 16.5799C10.4635 18.6006 8.30797 21.1266 6.86437 24.385L17.8358 29.2458C18.4057 27.9595 19.3536 26.7315 20.7727 25.433L12.672 16.5799ZM17.0446 13.4387C15.2833 14.3548 13.8169 15.5315 12.6704 16.5813L20.7742 25.4316C21.4925 24.7739 22.0905 24.3404 22.5818 24.0848L17.0446 13.4387ZM25.9548 11.9274C21.9302 10.9834 18.6238 12.618 17.0464 13.4378L22.5801 24.0857C22.8666 23.9368 23.0837 23.8329 23.2629 23.757C23.4398 23.682 23.5432 23.6504 23.5901 23.6383C23.6329 23.6272 23.6053 23.6385 23.5239 23.6415C23.4363 23.6446 23.3266 23.6366 23.2144 23.6103L25.9548 11.9274ZM30.3696 14.2448C29.331 13.3388 27.8065 12.3628 25.9578 11.9281L23.2113 23.6096C22.8964 23.5355 22.7118 23.4395 22.6494 23.405C22.5786 23.3657 22.5297 23.3299 22.4816 23.288L30.3696 14.2448ZM33.8918 19.4583C33.3171 18.0311 32.3359 15.9602 30.3701 14.2452L22.4812 23.2876C22.4006 23.2173 22.3913 23.1819 22.4422 23.2642C22.5034 23.3634 22.6066 23.5587 22.7605 23.941L33.8918 19.4583ZM35.6955 26.5402C35.4306 24.0493 34.7876 21.6856 33.8929 19.4609L22.7595 23.9385C23.2986 25.2788 23.6302 26.5631 23.7628 27.8092L35.6955 26.5402ZM35.8885 31.8907C35.9094 30.2763 35.8973 28.4385 35.6955 26.5405L23.7627 27.809C23.8883 28.9899 23.9085 30.2629 23.8895 31.7357L35.8885 31.8907ZM35.5103 36.734C35.7744 35.0539 35.8686 33.4093 35.8885 31.8918L23.8895 31.7346C23.8744 32.8865 23.8042 33.9273 23.6559 34.8705L35.5103 36.734ZM34.5641 39.9107C34.7646 39.4051 35.2872 38.1559 35.5106 36.7323L23.6556 34.8722C23.6731 34.7611 23.6889 34.7387 23.6497 34.8558C23.631 34.9117 23.6039 34.9873 23.5628 35.0952C23.5201 35.2072 23.4734 35.3252 23.4092 35.4871L34.5641 39.9107ZM34.4036 40.2791L34.4036 40.279L23.5697 35.1188L23.5697 35.1188L34.4036 40.2791ZM34.3775 40.3907C34.4245 40.2635 34.479 40.1253 34.5641 39.9108L23.4092 35.4871C23.333 35.6794 23.2263 35.9475 23.1227 36.2277L34.3775 40.3907ZM30.9692 45.8491C32.5604 44.2171 33.6592 42.327 34.3755 40.396L23.1247 36.2223C22.9113 36.7975 22.6477 37.1944 22.3773 37.4718L30.9692 45.8491ZM27.7202 48.4257C28.7813 47.7656 29.9301 46.9168 30.9732 45.845L22.3733 37.4758C22.1746 37.6801 21.8496 37.9452 21.3811 38.2367L27.7202 48.4257ZM18.667 50.3674C22.2588 50.9523 25.3439 49.9054 27.7222 48.4245L21.3792 38.2379C21.0709 38.4299 20.8789 38.4945 20.79 38.5163C20.722 38.533 20.6751 38.5363 20.5956 38.5234L18.667 50.3674ZM18.4411 50.3312C18.5258 50.3447 18.5986 50.3563 18.6695 50.3678L20.5932 38.523C20.4991 38.5077 20.4064 38.493 20.3253 38.4801L18.4411 50.3312ZM18.4396 50.331L18.4405 50.3312L20.3259 38.4802L20.325 38.48L18.4396 50.331ZM15.3922 49.5972C16.653 50.0677 17.9101 50.2468 18.4403 50.3311L20.3243 38.4799C19.9791 38.4251 19.8021 38.3957 19.6524 38.3643C19.5174 38.336 19.5164 38.3279 19.5882 38.3547L15.3922 49.5972ZM9.86348 45.5038C10.6394 46.3474 12.4936 48.5171 15.3952 49.5983L19.5853 38.3536C19.7561 38.4172 19.7884 38.4764 19.6375 38.3472C19.5573 38.2785 19.4455 38.1742 19.2837 38.0084C19.1152 37.8357 18.9405 37.6463 18.6956 37.3801L9.86348 45.5038ZM9.774 45.4065L9.86417 45.5045L18.6949 37.3793L18.6047 37.2813L9.774 45.4065ZM5.69187 37.2811C6.25679 39.3543 7.20812 42.6195 9.77521 45.4078L18.6035 37.28C18.1578 36.7959 17.7928 36.0458 17.2697 34.1263L5.69187 37.2811ZM5.69515 27.6414C4.88322 30.724 4.80308 34.0247 5.69253 37.2835L17.2691 34.1238C16.9807 33.0671 16.9781 31.9177 17.2994 30.6978L5.69515 27.6414ZM6.49037 25.3351C6.30142 25.8109 5.94851 26.6798 5.69528 27.6409L17.2993 30.6983C17.3372 30.5541 17.4082 30.3556 17.6431 29.7643L6.49037 25.3351ZM6.72115 24.7413C6.66095 24.9047 6.59211 25.079 6.49037 25.3351L17.6431 29.7643C17.7354 29.5317 17.8606 29.2173 17.9817 28.8886L6.72115 24.7413ZM14.2143 32.5184L14.2156 32.518L10.4873 21.1119L10.4859 21.1123L14.2143 32.5184ZM79.6639 59.7997C79.0145 61.0738 78.3847 61.9193 77.7173 62.5051L85.6325 71.5244C87.8146 69.6095 89.282 67.3547 90.3553 65.2489L79.6639 59.7997ZM79.4018 64.6579L79.4023 64.6592L90.617 60.3894L90.6165 60.3881L79.4018 64.6579ZM79.5707 59.8684C79.4867 60.1197 79.4043 60.3659 79.3219 60.6111L90.6964 64.4348C90.7821 64.1797 90.8673 63.925 90.9509 63.6752L79.5707 59.8684ZM80.0175 58.5395C79.8651 58.9883 79.7154 59.4358 79.5707 59.8684L90.9509 63.6751C91.097 63.2383 91.2383 62.8161 91.3806 62.3968L80.0175 58.5395ZM80.6 55.8698C80.5288 56.7209 80.3374 57.5951 80.0163 58.5429L91.3818 62.3933C91.9611 60.6832 92.3928 58.8471 92.5582 56.8706L80.6 55.8698ZM80.4048 52.7438C80.6353 53.2355 80.7605 53.944 80.5998 55.8718L92.5584 56.8686C92.7476 54.5989 92.9197 51.1681 91.2697 47.6493L80.4048 52.7438ZM81.0811 53.225C80.9788 53.1837 80.8665 53.1249 80.7547 53.0481C80.6436 52.9717 80.5543 52.892 80.4872 52.8215C80.3567 52.6842 80.3469 52.6205 80.4061 52.7465L91.2684 47.6466C90.2992 45.5823 88.5763 43.3105 85.5755 42.0984L81.0811 53.225ZM82.3114 53.4856C82.2395 53.487 82.1114 53.4853 81.9347 53.4604C81.765 53.4365 81.465 53.3793 81.0907 53.2289L85.5659 42.0946C84.1892 41.5412 82.8874 41.4721 82.0773 41.4879L82.3114 53.4856ZM81.5214 53.4895C81.731 53.49 82.0126 53.491 82.3023 53.4857L82.0864 41.4877C81.9403 41.4903 81.7823 41.4901 81.5513 41.4896L81.5214 53.4895ZM80.7638 53.4865C80.6435 53.5152 80.618 53.5066 80.7641 53.4986C80.8328 53.4949 80.9247 53.4919 81.0544 53.4904C81.1885 53.4888 81.3303 53.489 81.5213 53.4895L81.5513 41.4896C80.9614 41.4881 79.484 41.4547 77.9768 41.8146L80.7638 53.4865ZM74.8035 56.29C76.7434 54.9315 78.7102 53.9761 80.7618 53.4869L77.9788 41.8141C74.1504 42.7269 70.8116 44.4356 67.9201 46.4605L74.8035 56.29ZM74.2996 56.641C74.4606 56.5291 74.6308 56.4108 74.8017 56.2913L67.9218 46.4593C67.7697 46.5658 67.6156 46.6729 67.4519 46.7866L74.2996 56.641ZM71.2731 59.123C71.7867 58.4466 72.5719 57.8415 74.2996 56.641L67.4519 46.7866C65.9979 47.797 63.5701 49.4245 61.7162 51.866L71.2731 59.123ZM70.73 59.8109C70.8668 59.6415 71.0697 59.391 71.2732 59.123L61.7162 51.866C61.6391 51.9675 61.5495 52.0791 61.3937 52.2721L70.73 59.8109ZM70.45 60.0506C70.3687 60.2757 70.2884 60.3839 70.3206 60.3363C70.3371 60.3119 70.3727 60.2617 70.443 60.1708C70.5175 60.0744 70.6006 59.9712 70.73 59.8109L61.3937 52.2721C61.0048 52.7537 59.8328 54.1206 59.1631 55.9756L70.45 60.0506ZM69.8958 61.2535C69.9198 61.2098 70.2188 60.6884 70.4473 60.0579L59.1657 55.9682C59.2468 55.7447 59.3243 55.5841 59.3587 55.5153C59.3877 55.4571 59.4104 55.4171 59.3689 55.493L69.8958 61.2535ZM70.2644 60.2227C70.1609 60.6635 70.0226 60.9838 69.9523 61.1351C69.8916 61.2658 69.8365 61.362 69.8958 61.2535L59.3689 55.4931C59.3604 55.5085 58.8405 56.3799 58.5824 57.4784L70.2644 60.2227ZM70.0773 60.9948C70.1344 60.7624 70.1997 60.4974 70.2633 60.2274L58.5836 57.4737C58.5354 57.6779 58.4841 57.8868 58.4246 58.1285L70.0773 60.9948ZM69.6868 62.8577C69.7343 62.4259 69.846 61.9351 70.0773 60.9947L58.4246 58.1285C58.2259 58.9364 57.907 60.1963 57.7586 61.5472L69.6868 62.8577ZM70.1088 63.925C69.873 63.3615 69.7662 63.044 69.7153 62.8348C69.6715 62.6545 69.705 62.6919 69.6871 62.8553L57.7583 61.5495C57.4258 64.5872 58.4545 67.1603 59.0384 68.5561L70.1088 63.925ZM70.4379 64.3131C70.2854 64.1703 70.2052 64.0731 70.1648 64.0178C70.1279 63.9674 70.1149 63.9397 70.108 63.9231L59.0392 68.5579C59.8407 70.472 61.0184 71.9324 62.2354 73.0721L70.4379 64.3131ZM71.5718 64.6446C71.141 64.6081 70.8695 64.5353 70.7098 64.4735C70.5681 64.4187 70.4946 64.3662 70.4364 64.3117L62.2369 73.0735C64.836 75.5058 67.9166 76.3782 70.5602 76.6018L71.5718 64.6446ZM74.3241 64.2961C73.3284 64.6165 72.4414 64.7181 71.5714 64.6445L70.5606 76.6019C73.1654 76.822 75.6457 76.4768 77.9996 75.7194L74.3241 64.2961ZM77.7155 62.5066C76.9002 63.2227 75.8259 63.8131 74.3246 64.296L77.9991 75.7195C80.628 74.8739 83.2803 73.5903 85.6343 71.5229L77.7155 62.5066Z" fill="#FFF4F3" mask="url(#path-2-outside-1_141_330)"/>
</g>
</g>
<defs>
<filter id="filter0_d_141_330" x="1.95605" y="1.84106" width="93.7197" height="96.8491" filterUnits="userSpaceOnUse" color-interpolation-filters="sRGB">
<feFlood flood-opacity="0" result="BackgroundImageFix"/>
<feColorMatrix in="SourceAlpha" type="matrix" values="0 0 0 0 0 0 0 0 0 0 0 0 0 0 0 0 0 0 127 0" result="hardAlpha"/>
<feOffset dy="4"/>
<feGaussianBlur stdDeviation="1.5"/>
<feComposite in2="hardAlpha" operator="out"/>
<feColorMatrix type="matrix" values="0 0 0 0 0 0 0 0 0 0 0 0 0 0 0 0 0 0 0.19 0"/>
<feBlend mode="normal" in2="BackgroundImageFix" result="effect1_dropShadow_141_330"/>
<feBlend mode="normal" in="SourceGraphic" in2="effect1_dropShadow_141_330" result="shape"/>
</filter>
</defs>
</svg>
