<svg width="70" height="75" viewBox="0 0 70 75" fill="none" xmlns="http://www.w3.org/2000/svg">
<g opacity="0.2" filter="url(#filter0_f_141_545)">
<path d="M60.9278 40.0365C59.4316 38.6926 57.6211 37.8823 55.6421 37.6456C55.093 33.8007 53.8258 29.5336 51.2874 25.303C48.0614 19.9246 43.8747 16.4148 40.3652 14.2087C40.2414 13.6626 40.1177 13.1052 40.0338 12.7267C39.4795 10.2101 39.1412 8.73262 38.6655 7.63664C37.7634 5.55726 35.7195 4.20471 33.4605 4.18813C32.6573 4.18224 31.8734 4.34369 31.134 4.66578C28.2769 5.91596 26.945 9.24093 28.1288 12.1194C28.2893 12.6268 28.6736 14.3657 28.8591 15.2099C28.943 15.593 29.0226 15.9509 29.0977 16.2881C23.9112 21.8339 18.2089 30.193 16.1409 41.4647C16.0221 42.1074 15.9238 42.7526 15.8323 43.3978C13.1869 43.486 10.7226 44.3864 8.8489 45.9781C3.39988 50.6059 5.00054 58.556 7.40446 62.7718C10.1779 67.6339 15.8367 70.8064 21.8219 70.8503C24.3296 70.8687 26.7936 70.3187 28.9533 69.2581C33.2909 67.1256 37.0074 62.5698 38.0201 57.6645C40.9804 60.0636 44.7985 61.5734 48.464 61.7835C48.7377 61.7993 49.0138 61.8082 49.2876 61.8102C55.9095 61.8588 62.2456 57.9246 64.3509 52.4593C66.0258 48.113 64.7455 43.468 60.9278 40.0388L60.9278 40.0365ZM32.9067 45.4607C31.8938 44.8119 30.7816 44.3045 29.6156 43.9799C28.8891 43.7798 28.1439 43.6507 27.3936 43.5902C27.396 43.5742 27.3984 43.5605 27.4008 43.5445C28.846 35.6648 32.6946 29.5916 36.3309 25.388C38.0801 26.775 39.9556 28.6806 41.484 31.2272C42.3204 32.619 42.9422 34.023 43.4022 35.396C43.0279 35.4116 42.6512 35.4409 42.2833 35.4977C36.9764 36.3131 33.6951 40.9567 32.9068 45.4584L32.9067 45.4607Z" fill="#26201D"/>
</g>
<path d="M56.7428 37.6812C55.2466 36.3373 53.4361 35.527 51.4571 35.2903C50.9079 31.4453 49.6408 27.1783 47.1024 22.9477C43.8764 17.5692 39.6896 14.0595 36.1802 11.8556C36.0564 11.3096 35.9327 10.7522 35.8487 10.3736C35.2944 7.85706 34.9561 6.3796 34.4804 5.28361C33.5783 3.20423 31.5345 1.85168 29.2755 1.83511C28.4723 1.82922 27.6884 1.99066 26.9489 2.31276C24.0919 3.56294 22.7599 6.88791 23.9437 9.76639C24.1043 10.2737 24.4886 12.0126 24.6741 12.8568C24.758 13.2399 24.8375 13.5978 24.9126 13.9351C19.7261 19.4809 14.0238 27.84 11.9558 39.1117C11.837 39.7544 11.7387 40.3995 11.6473 41.0447C9.00186 41.133 6.53759 42.0333 4.66384 43.6251C-0.785176 48.2529 0.815483 56.2029 3.2194 60.4188C5.99281 65.2809 11.6516 68.4533 17.6368 68.4972C20.1446 68.5156 22.6108 67.9634 24.7682 66.9028C29.1059 64.7702 32.8224 60.2145 33.835 55.3092C36.7931 57.7082 40.6134 59.2181 44.279 59.4282C44.5527 59.444 44.8287 59.4529 45.1026 59.4549C51.7244 59.5035 58.0606 55.5693 60.1658 50.104C61.8407 45.7577 60.5604 41.1127 56.7428 37.6835L56.7428 37.6812Z" fill="white"/>
<path d="M17.0675 53.1018C16.3077 53.0962 15.6593 52.512 15.5897 51.7351C15.2265 47.7427 15.4041 43.7542 16.1149 39.8773C18.3088 27.9171 25.0201 19.5058 30.2639 14.5559C30.7303 14.1173 31.4202 14.0216 31.9862 14.3212C35.33 16.0864 40.0408 19.3962 43.4832 25.1358C48.914 34.1882 47.6753 43.471 46.8915 47.0405C46.7144 47.85 45.9165 48.364 45.1077 48.184C44.3012 48.0063 43.7891 47.2032 43.9685 46.3915C44.6767 43.1742 45.7946 34.8112 40.9206 26.6836C38.1432 22.0551 34.4401 19.1856 31.5339 17.4992C26.7528 22.2189 21.0011 29.847 19.0614 40.4188C18.4006 44.0258 18.2364 47.7395 18.5743 51.4592C18.6504 52.2866 18.0426 53.0174 17.2182 53.0915C17.168 53.0957 17.1178 53.0976 17.0699 53.0973L17.0675 53.1018Z" fill="#4979E2"/>
<path d="M31.2782 17.1537C30.7055 17.1495 30.1603 16.8134 29.9157 16.2505C29.6037 15.5313 29.2853 14.141 28.7995 11.9387C28.4792 10.4889 28.0817 8.68344 27.8618 8.17795C27.5319 7.41743 27.8784 6.53132 28.6362 6.2002C29.3939 5.86908 30.2768 6.21681 30.6066 6.97734C30.9186 7.6965 31.237 9.08679 31.7228 11.2891C32.0431 12.7389 32.4406 14.5443 32.6605 15.0498C32.9904 15.8104 32.6439 16.6965 31.8861 17.0276C31.687 17.1132 31.4813 17.1552 31.2782 17.1537Z" fill="#4979E2"/>
<path d="M17.5369 46.9348C14.0369 44.6921 9.881 44.7509 7.39646 46.8604C3.9337 49.801 5.24788 55.4312 6.89031 58.3084C9.83719 63.4764 17.3046 65.8491 22.9133 63.0914C27.8167 60.6813 31.2104 54.3963 29.3487 49.9897C28.5233 48.0346 26.6211 46.351 24.3096 45.7111C20.7797 44.7347 17.9406 46.6538 17.5392 46.9348L17.5369 46.9348Z" fill="#C362DA"/>
<path d="M45.8947 40.7827C44.1284 38.2939 41.359 36.9337 38.7364 37.3382C34.9441 37.9196 32.8697 41.9674 32.7636 44.9281C32.5713 50.2952 38.747 54.8617 44.5202 55.1926C52.969 55.6783 61.0587 47.2565 53.9221 40.8416C50.635 37.8881 46.2092 40.5285 45.8947 40.7827Z" fill="#C362DA"/>
<path d="M14.7634 50.5201C14.1614 49.2148 12.8405 48.8546 12.6628 48.8075C11.294 48.4585 9.46905 48.9902 8.84659 50.4767C8.32399 51.7257 8.87987 53.0948 9.66597 53.877C10.6854 54.8899 12.5463 55.3639 13.8888 54.3317C15.0661 53.4288 15.3339 51.7588 14.7611 50.5201L14.7634 50.5201Z" fill="#E98EFE"/>
<path d="M42.717 41.8199C42.115 40.5146 40.7941 40.1545 40.6165 40.1073C39.2476 39.7583 37.4227 40.29 36.8002 41.7765C36.2776 43.0255 36.8335 44.3946 37.6196 45.1745C38.639 46.1874 40.4999 46.6615 41.8424 45.6292C43.0197 44.7263 43.2875 43.0563 42.7147 41.8176L42.717 41.8199Z" fill="#E98EFE"/>
<defs>
<filter id="filter0_f_141_545" x="1.18164" y="0.187988" width="67.8911" height="74.6626" filterUnits="userSpaceOnUse" color-interpolation-filters="sRGB">
<feFlood flood-opacity="0" result="BackgroundImageFix"/>
<feBlend mode="normal" in="SourceGraphic" in2="BackgroundImageFix" result="shape"/>
<feGaussianBlur stdDeviation="2" result="effect1_foregroundBlur_141_545"/>
</filter>
</defs>
</svg>
