<svg width="82" height="83" viewBox="0 0 82 83" fill="none" xmlns="http://www.w3.org/2000/svg">
<g opacity="0.3" filter="url(#filter0_f_141_169)">
<path d="M33.8747 77.6838C31.7041 77.4324 29.563 76.9526 27.5098 76.2602C20.9756 74.0551 15.2064 69.6403 11.2624 63.8317C7.07258 57.662 5.2405 50.3383 6.10464 43.2066C7.88032 28.5204 20.1972 20.397 27.1961 17.9131C28.3694 17.4949 34.6237 15.4544 42.1845 16.3341C48.3959 17.0562 54.0479 19.5949 58.531 23.6806C63.7024 28.3925 67.1409 34.9255 68.2149 42.0755C69.3069 49.3512 67.8607 56.7799 64.1401 62.9908C57.9467 73.3307 46.0675 79.0983 33.8792 77.6838H33.8747Z" fill="black"/>
</g>
<path d="M13.6577 56.6768L13.6573 56.6763C8.83864 49.6477 6.75537 41.3352 7.73741 33.2831C9.75519 16.7463 23.8439 7.41445 31.9982 4.54593L32.0011 4.54489C33.2822 4.09246 40.5498 1.74031 49.2967 2.74884L49.297 2.74887C56.431 3.57066 62.8838 6.45266 67.9908 11.0645L67.991 11.0647C73.9027 16.4021 77.8564 23.8264 79.0921 31.9781C80.3475 40.2671 78.6821 48.7196 74.4181 55.7728L74.4181 55.7729C67.3308 67.4976 53.699 74.0839 39.6654 72.4675L39.1791 72.4115C36.8498 72.1124 34.5542 71.5865 32.349 70.8496C24.8451 68.3401 18.2 63.3059 13.6577 56.6768Z" fill="#FFECBB" stroke="white" stroke-width="5"/>
<path d="M52.9674 26.0101C46.3309 21.2781 38.493 24.9211 37.9936 25.1642C37.6447 25.333 29.4097 29.5044 29.3475 37.8412C29.2954 44.6107 34.6584 50.4157 41.1585 51.7861C47.4941 53.1223 54.6541 50.1947 57.6083 43.7567C60.5345 37.3851 58.3123 29.8178 52.9694 26.0081L52.9674 26.0101Z" fill="#FF77AC"/>
<path d="M24.498 38.4962C24.4779 38.4962 24.4579 38.4962 24.4378 38.4962L19.1651 38.2852C18.3408 38.2531 17.699 37.5558 17.7311 36.73C17.7632 35.9041 18.4572 35.2591 19.2835 35.2933L24.5562 35.5043C25.3805 35.5364 26.0223 36.2337 25.9902 37.0595C25.9581 37.8653 25.2962 38.4962 24.498 38.4962Z" fill="#FFC700"/>
<path d="M21.2167 48.9248C20.6311 48.9248 20.0756 48.5771 19.8369 48.0025C19.52 47.2389 19.879 46.3628 20.6411 46.0433L25.5147 44.0079C26.2768 43.6884 27.1513 44.0501 27.4702 44.8136C27.7871 45.5772 27.4281 46.4533 26.6659 46.7727L21.7923 48.8082C21.6038 48.8866 21.4093 48.9248 21.2187 48.9248H21.2167Z" fill="#FFC700"/>
<path d="M26.3931 29.6215C26.1444 29.6215 25.8937 29.5592 25.661 29.4286L22.2856 27.5277C21.5656 27.1218 21.3109 26.2096 21.716 25.4882C22.1212 24.7669 23.0317 24.5117 23.7517 24.9176L27.1271 26.8184C27.8471 27.2243 28.1018 28.1366 27.6967 28.8579C27.422 29.3462 26.9145 29.6215 26.3931 29.6215Z" fill="#FFC700"/>
<path d="M32.9335 23.282C32.4642 23.282 32.0009 23.061 31.7101 22.6451L29.0367 18.8333C28.5613 18.1562 28.7238 17.2238 29.3997 16.7476C30.0756 16.2714 31.0082 16.4342 31.4815 17.1113L34.1549 20.921C34.6303 21.5982 34.4678 22.5325 33.7919 23.0067C33.5312 23.1916 33.2304 23.28 32.9335 23.28V23.282Z" fill="#FFC700"/>
<path d="M40.7353 20.1131C39.9471 20.1131 39.2893 19.4962 39.2452 18.6985L39.0346 14.8948C38.9885 14.0689 39.6202 13.3636 40.4445 13.3174C41.2748 13.2752 41.9748 13.9042 42.0189 14.73L42.2295 18.5337C42.2756 19.3595 41.6439 20.0648 40.8196 20.111C40.7915 20.111 40.7634 20.1131 40.7353 20.1131Z" fill="#FFC700"/>
<path d="M49.6562 20.5365C49.5479 20.5365 49.4396 20.5245 49.3293 20.5004C48.523 20.3195 48.0156 19.5198 48.1961 18.712L49.0345 14.9485C49.215 14.1408 50.0132 13.6344 50.8194 13.8133C51.6257 13.9941 52.1331 14.7938 51.9526 15.6016L51.1143 19.3651C50.9598 20.0623 50.3421 20.5365 49.6562 20.5365Z" fill="#FFC700"/>
<path d="M57.2011 23.4627C56.812 23.4627 56.4249 23.312 56.1321 23.0106C55.5545 22.4178 55.5665 21.4714 56.1582 20.8927L58.0615 19.0321C58.6531 18.4534 59.5998 18.4674 60.1754 19.0582C60.751 19.6509 60.7409 20.5973 60.1493 21.176L58.246 23.0367C57.9552 23.32 57.5781 23.4627 57.2031 23.4627H57.2011Z" fill="#FFC700"/>
<path d="M62.2451 30.6721C61.7196 30.6721 61.2122 30.3948 60.9374 29.9025C60.5363 29.1812 60.795 28.2689 61.515 27.865L64.8965 25.9763C65.6185 25.5724 66.527 25.8336 66.9301 26.5549C67.3332 27.2763 67.0725 28.1885 66.3525 28.5924L62.9711 30.4812C62.7404 30.6098 62.4917 30.6701 62.2451 30.6701V30.6721Z" fill="#FFC700"/>
<path d="M63.6834 38.3296C62.8732 38.3296 62.2073 37.6786 62.1893 36.8628C62.1732 36.037 62.827 35.3518 63.6533 35.3357L68.1619 35.2433C68.9842 35.2332 69.6701 35.8823 69.6862 36.7101C69.7022 37.538 69.0484 38.2211 68.2221 38.2372L63.7135 38.3296C63.7035 38.3296 63.6934 38.3296 63.6814 38.3296H63.6834Z" fill="#FFC700"/>
<path d="M56.6095 60.0647C56.1 60.0647 55.6047 59.8034 55.3239 59.3333L52.9432 55.3326C52.5201 54.6213 52.7527 53.7031 53.4607 53.2791C54.1707 52.8551 55.0872 53.0882 55.5104 53.7975L57.891 57.7981C58.3142 58.5094 58.0816 59.4277 57.3736 59.8517C57.1329 59.9943 56.8702 60.0626 56.6095 60.0626V60.0647Z" fill="#FFC700"/>
<path d="M46.1341 62.4456C46.1341 62.4456 46.114 62.4456 46.104 62.4456C45.2797 62.4295 44.6239 61.7463 44.6399 60.9185L44.7141 57.1107C44.7302 56.2849 45.4061 55.6258 46.2384 55.6439C47.0627 55.66 47.7185 56.3432 47.7025 57.171L47.6283 60.9787C47.6122 61.7945 46.9464 62.4476 46.1341 62.4476V62.4456Z" fill="#FFC700"/>
<path d="M36.2288 61.238C36.0844 61.238 35.94 61.2179 35.7955 61.1737C35.0053 60.9346 34.5601 60.0967 34.7988 59.307L35.9159 55.6178C36.1545 54.8262 36.9909 54.3801 37.7791 54.6192C38.5693 54.8583 39.0145 55.6962 38.7759 56.4859L37.6587 60.1751C37.4622 60.8221 36.8705 61.238 36.2288 61.238Z" fill="#FFC700"/>
<path d="M28.0018 55.7751C27.5746 55.7751 27.1514 55.5922 26.8566 55.2406C26.3251 54.6076 26.4094 53.6632 27.0411 53.1307L29.0788 51.4188C29.7106 50.8863 30.6532 50.9707 31.1847 51.6036C31.7141 52.2366 31.6319 53.181 31.0002 53.7135L28.9625 55.4254C28.6817 55.6605 28.3407 55.7751 28.0018 55.7751Z" fill="#FFC700"/>
<path d="M66.0741 46.0054C65.9738 46.0054 65.8735 45.9953 65.7732 45.9752L63.4387 45.497C62.6305 45.3302 62.109 44.5405 62.2735 43.7288C62.4399 42.919 63.2301 42.3946 64.0384 42.5633L66.3729 43.0416C67.1811 43.2083 67.7026 43.998 67.5381 44.8098C67.3937 45.5191 66.77 46.0074 66.0761 46.0074L66.0741 46.0054Z" fill="#FFC700"/>
<path d="M64.5578 53.9457C64.3112 53.9457 64.0605 53.8834 63.8298 53.7548L60.4704 51.872C59.7504 51.4681 59.4917 50.5559 59.8948 49.8345C60.298 49.1132 61.2085 48.854 61.9285 49.2599L65.2879 51.1426C66.0079 51.5465 66.2666 52.4587 65.8635 53.1801C65.5907 53.6704 65.0813 53.9477 64.5578 53.9477V53.9457Z" fill="#FFC700"/>
<path d="M50.6973 29.0523C45.7655 25.5359 39.9413 28.2445 39.5702 28.4234C39.3115 28.55 33.1924 31.6484 33.1443 37.8452C33.1062 42.8766 37.0893 47.1887 41.9208 48.2074C46.6299 49.2021 51.9487 47.0239 54.1449 42.2417C56.3189 37.5077 54.6683 31.8835 50.6973 29.0523Z" fill="#FFC700"/>
<path d="M44.0604 44.4658C43.4327 44.4658 42.8029 44.3754 42.1912 44.1865C38.4949 43.0452 37.4781 38.928 37.438 38.7532C37.3377 38.3292 37.5984 37.9013 38.0236 37.8008C38.4468 37.7003 38.874 37.9615 38.9742 38.3875C38.9823 38.4217 39.8146 41.7954 42.6565 42.6735C45.336 43.5013 48.4366 41.8376 49.7142 38.8899C49.8867 38.488 50.354 38.3051 50.7531 38.4799C51.1522 38.6548 51.3367 39.1189 51.1622 39.5208C49.8526 42.5449 46.9585 44.4678 44.0604 44.4678V44.4658Z" fill="#FF77AC"/>
<path d="M40.9476 33.7106C39.4073 33.7367 39.3973 35.6154 40.346 36.0274C40.9236 36.2785 41.784 36.0093 42.0988 35.3361C42.4659 34.5465 41.6997 33.6985 40.9476 33.7106Z" fill="#FF77AC"/>
<path d="M48.5389 34.3453C46.9987 34.3715 46.9886 36.2502 47.9373 36.6621C48.5149 36.9133 49.3753 36.644 49.6902 35.9709C50.0572 35.1812 49.291 34.3333 48.5389 34.3453Z" fill="#FF77AC"/>
<defs>
<filter id="filter0_f_141_169" x="0.895508" y="11.1162" width="72.6743" height="71.7793" filterUnits="userSpaceOnUse" color-interpolation-filters="sRGB">
<feFlood flood-opacity="0" result="BackgroundImageFix"/>
<feBlend mode="normal" in="SourceGraphic" in2="BackgroundImageFix" result="shape"/>
<feGaussianBlur stdDeviation="2.5" result="effect1_foregroundBlur_141_169"/>
</filter>
</defs>
</svg>
