<svg width="48" height="48" viewBox="0 0 48 48" fill="none" xmlns="http://www.w3.org/2000/svg">
<circle cx="24" cy="24" r="24" fill="#3D6AD6"/>
<path d="M20.422 25.7718C20.3143 25.7718 18.0559 25.7725 17.0143 25.7715C16.4781 25.7711 16.2868 25.5784 16.2868 25.0388C16.2861 23.6526 16.2858 22.2665 16.2868 20.8803C16.2871 20.3475 16.4894 20.1442 17.0188 20.1438C18.0604 20.1431 20.3064 20.1435 20.422 20.1435C20.422 20.0485 20.4216 18.0473 20.422 17.1257C20.4227 15.7631 20.6658 14.4589 21.358 13.2647C22.0667 12.0425 23.098 11.2052 24.4197 10.7211C25.2662 10.4108 26.1449 10.287 27.0432 10.2863C28.1671 10.2857 29.291 10.2867 30.4152 10.2887C30.8983 10.2894 31.1126 10.503 31.1136 10.9895C31.1157 12.2934 31.1157 13.5973 31.1136 14.9009C31.1129 15.3925 30.9076 15.59 30.4135 15.5955C29.4923 15.6054 28.5703 15.5993 27.6501 15.6363C26.7206 15.6363 26.2317 16.0902 26.2317 17.0523C26.2094 18.0699 26.2224 19.0885 26.2224 20.1431C26.3095 20.1431 28.9547 20.1428 30.191 20.1431C30.7526 20.1431 30.9446 20.3362 30.9446 20.9009C30.9446 22.2795 30.9443 23.6585 30.9432 25.0371C30.9429 25.5935 30.7625 25.7711 30.1975 25.7715C28.9612 25.7722 26.3263 25.7718 26.2111 25.7718V36.9301C26.2111 37.525 26.0239 37.7146 25.4369 37.7146C24.0059 37.7146 22.5744 37.7149 21.1434 37.7146C20.6246 37.7146 20.4223 37.513 20.4223 36.9942C20.422 33.3603 20.422 25.8994 20.422 25.7718Z" fill="white"/>
</svg>
