<svg width="48" height="48" viewBox="0 0 48 48" fill="none" xmlns="http://www.w3.org/2000/svg">
<path d="M24 48C37.2548 48 48 37.2548 48 24C48 10.7452 37.2548 0 24 0C10.7452 0 0 10.7452 0 24C0 37.2548 10.7452 48 24 48Z" fill="url(#paint0_linear_141_611)"/>
<path d="M31.3717 17.5418C31.8764 17.5418 32.2854 17.1327 32.2854 16.6281C32.2854 16.1234 31.8764 15.7144 31.3717 15.7144C30.8671 15.7144 30.458 16.1234 30.458 16.6281C30.458 17.1327 30.8671 17.5418 31.3717 17.5418Z" fill="white"/>
<path d="M29.1433 10.2861H18.8576C14.1244 10.2861 10.2861 14.1244 10.2861 18.8576V29.1433C10.2861 33.8764 14.1244 37.7147 18.8576 37.7147H29.1433C33.8764 37.7147 37.7147 33.8764 37.7147 29.1433V18.8576C37.7147 14.1244 33.8764 10.2861 29.1433 10.2861ZM35.1433 29.1433C35.1433 32.4518 32.4518 35.1433 29.1433 35.1433H18.8576C15.549 35.1433 12.8576 32.4518 12.8576 29.1433V18.8576C12.8576 15.549 15.549 12.8576 18.8576 12.8576H29.1433C32.4518 12.8576 35.1433 15.549 35.1433 18.8576V29.1433Z" fill="white"/>
<path d="M24.0007 17.1426C20.2138 17.1426 17.1436 20.2129 17.1436 23.9997C17.1436 27.7866 20.2138 30.8569 24.0007 30.8569C27.7876 30.8569 30.8578 27.7866 30.8578 23.9997C30.8578 20.2129 27.7876 17.1426 24.0007 17.1426ZM24.0007 28.2854C21.6384 28.2854 19.715 26.362 19.715 23.9997C19.715 21.6357 21.6384 19.714 24.0007 19.714C26.363 19.714 28.2864 21.6357 28.2864 23.9997C28.2864 26.362 26.363 28.2854 24.0007 28.2854Z" fill="white"/>
<defs>
<linearGradient id="paint0_linear_141_611" x1="7.03115" y1="40.9734" x2="40.9689" y2="7.03114" gradientUnits="userSpaceOnUse">
<stop stop-color="#FFC107"/>
<stop offset="0.507" stop-color="#F44336"/>
<stop offset="0.99" stop-color="#9C27B0"/>
</linearGradient>
</defs>
</svg>
