<svg width="105" height="105" viewBox="0 0 105 105" fill="none" xmlns="http://www.w3.org/2000/svg">
<g clip-path="url(#clip0_141_429)">
<g filter="url(#filter0_d_141_429)">
<path d="M55.9645 88.3198C52.6479 87.7316 49.7273 85.9018 47.7307 83.1719L43.0313 76.7342L34.8056 79.852C32.5952 80.6872 30.2072 80.9166 27.8962 80.5068C23.4799 79.7236 19.8184 76.7709 18.1127 72.6053C16.4195 68.4722 16.9639 63.829 19.5691 60.1861L23.762 54.328L17.8758 46.5796C14.6211 42.2905 14.3328 36.5626 17.1406 31.9823C19.9553 27.3971 25.1948 25.0436 30.4931 25.9832C30.94 26.0625 31.3887 26.1662 31.8449 26.2955L39.4911 28.4978L46.6138 18.74C49.5684 14.6996 54.4604 12.7318 59.3942 13.6067C65.8157 14.7455 70.4364 20.4981 70.142 26.9811L69.6547 37.6981L77.2823 39.1838C82.6346 40.2297 86.8022 44.5356 87.6517 49.9036C88.5012 55.2715 85.8751 60.6398 81.114 63.2716L71.211 68.7338L71.2526 75.4759C71.2775 79.3373 69.6001 82.9816 66.6559 85.458C63.683 87.9596 59.7858 89.0035 55.9576 88.3246L55.9645 88.3198Z" fill="#FFF4D2"/>
<path d="M57.2492 80.2657L47.1549 66.4391C46.5615 65.6262 45.4912 65.3046 44.5438 65.6638L27.6459 72.0743C25.5724 72.8582 23.7317 70.4852 25.0245 68.6887L34.2872 55.735C34.8526 54.9403 34.8406 53.8699 34.2492 53.0851L22.8655 38.0932C21.5623 36.3775 23.201 34.0041 25.2732 34.6006L41.0762 39.1513C41.9838 39.4094 42.9534 39.0819 43.5129 38.3208L55.994 21.2273C57.3002 19.4332 60.1502 20.4312 60.0427 22.646L59.0734 43.9247C59.0231 45.0327 59.7963 46.0093 60.8856 46.2233L78.4884 49.6502C80.54 50.0487 80.9793 52.7906 79.1514 53.7985L62.3739 63.0608C61.6571 63.454 61.2159 64.2152 61.218 65.0272L61.3104 78.9463C61.3216 81.1197 58.5372 82.0273 57.2547 80.2736L57.2492 80.2657Z" fill="#FFC81A"/>
</g>
</g>
<defs>
<filter id="filter0_d_141_429" x="12.2188" y="13.4019" width="76.5913" height="81.1255" filterUnits="userSpaceOnUse" color-interpolation-filters="sRGB">
<feFlood flood-opacity="0" result="BackgroundImageFix"/>
<feColorMatrix in="SourceAlpha" type="matrix" values="0 0 0 0 0 0 0 0 0 0 0 0 0 0 0 0 0 0 127 0" result="hardAlpha"/>
<feOffset dx="-1" dy="4"/>
<feGaussianBlur stdDeviation="1"/>
<feComposite in2="hardAlpha" operator="out"/>
<feColorMatrix type="matrix" values="0 0 0 0 0 0 0 0 0 0 0 0 0 0 0 0 0 0 0.25 0"/>
<feBlend mode="normal" in2="BackgroundImageFix" result="effect1_dropShadow_141_429"/>
<feBlend mode="normal" in="SourceGraphic" in2="effect1_dropShadow_141_429" result="shape"/>
</filter>
<clipPath id="clip0_141_429">
<rect width="90.1675" height="90.1675" fill="white" transform="translate(15.9824) rotate(10.0563)"/>
</clipPath>
</defs>
</svg>
