<svg width="120" height="44" viewBox="0 0 120 44" fill="none" xmlns="http://www.w3.org/2000/svg">
<g clip-path="url(#clip0_253_159)">
<path d="M17.3755 28.6292C16.0636 27.9009 14.7043 27.2624 13.3068 26.7179C12.2222 26.2881 11.2441 25.882 10.3723 25.4995C9.61122 25.181 8.90678 24.7401 8.28665 24.1942C7.76202 23.7107 7.5021 23.1596 7.5021 22.5407C7.48683 22.2078 7.55917 21.8766 7.71182 21.5807C7.86448 21.2848 8.09207 21.0345 8.37168 20.8551C8.94922 20.4661 9.68357 20.2717 10.5745 20.2717C11.9144 20.2776 13.2321 20.6159 14.4106 21.2563C15.6282 21.8983 16.7128 22.7673 17.6065 23.8171L21.0944 20.1105C20.3232 19.1908 19.4222 18.3895 18.4199 17.7319C17.329 17.0144 16.1466 16.4485 14.9047 16.0493C13.5622 15.6155 12.1597 15.3979 10.7494 15.4047C9.19478 15.3922 7.6503 15.6574 6.18811 16.1879C4.85836 16.65 3.68886 17.4864 2.8189 18.5972C1.98463 19.6792 1.56749 21.0323 1.56749 22.6567C1.56749 24.2425 1.94558 25.5576 2.70178 26.6019C3.46683 27.6535 4.46054 28.516 5.60733 29.1239C6.76291 29.7503 7.95683 30.3025 9.18191 30.7774C10.382 31.2072 11.428 31.6229 12.3201 32.0247C13.1066 32.3601 13.8164 32.8537 14.4057 33.4752C14.9025 34.0212 15.1728 34.7372 15.1615 35.4767C15.1615 36.3663 14.8405 37.0619 14.1988 37.5637C13.557 38.0654 12.679 38.3179 11.5644 38.3211C10.6515 38.3177 9.74643 38.1512 8.89148 37.8296C7.93828 37.4651 7.0461 36.9564 6.24587 36.3212C5.31856 35.5929 4.45394 34.7875 3.66121 33.9135L0 37.5669C0.838004 38.6385 1.80355 39.603 2.87506 40.4387C4.08537 41.3858 5.43972 42.1307 6.88603 42.6449C8.49947 43.2162 10.2003 43.4982 11.911 43.4781C14.8544 43.4781 17.1889 42.7147 18.9141 41.1881C20.6393 39.6614 21.5014 37.6405 21.5003 35.1254C21.5003 33.5009 21.1228 32.1865 20.3677 31.1819C19.5586 30.1305 18.5393 29.261 17.3755 28.6292Z" fill="#F46A5C"/>
<path d="M118.867 31.1819C118.057 30.1305 117.038 29.261 115.874 28.6292C114.562 27.9006 113.202 27.262 111.805 26.7179C110.72 26.2881 109.742 25.882 108.87 25.4995C108.109 25.1805 107.405 24.7398 106.784 24.1942C106.262 23.7107 106 23.1596 106 22.5407C105.985 22.2081 106.058 21.8776 106.211 21.5823C106.364 21.287 106.592 21.0372 106.871 20.8583C107.454 20.4731 108.188 20.2797 109.081 20.2797C110.42 20.2858 111.737 20.6241 112.915 21.2644C114.13 21.9045 115.213 22.7708 116.106 23.8171L119.592 20.1105C118.822 19.1909 117.922 18.3895 116.92 17.7319C115.828 17.0144 114.645 16.4485 113.402 16.0493C112.061 15.6155 110.659 15.3979 109.248 15.4047C107.695 15.3922 106.149 15.6574 104.688 16.1879C103.358 16.6507 102.188 17.4869 101.318 18.5972C100.485 19.6792 100.068 21.0323 100.068 22.6567C100.068 24.2425 100.446 25.5576 101.202 26.6019C101.966 27.6535 102.96 28.516 104.107 29.1239C105.263 29.749 106.457 30.3002 107.683 30.7742C108.883 31.2039 109.929 31.6197 110.822 32.0215C111.608 32.3565 112.318 32.8501 112.907 33.4719C113.405 34.0172 113.675 34.7337 113.662 35.4735C113.662 36.3631 113.342 37.0587 112.7 37.5605C112.058 38.0622 111.179 38.3158 110.062 38.3211C109.149 38.3177 108.244 38.1512 107.389 37.8296C106.436 37.4651 105.545 36.9564 104.745 36.3212C103.818 35.5925 102.953 34.7872 102.159 33.9135L98.498 37.5669C99.3372 38.6381 100.303 39.6025 101.375 40.4387C102.585 41.386 103.939 42.131 105.386 42.6449C106.999 43.2162 108.7 43.4982 110.41 43.4781C113.355 43.4781 115.689 42.7147 117.414 41.1881C119.138 39.6614 120 37.6405 120 35.1254C120 33.5009 119.622 32.1865 118.867 31.1819Z" fill="#F46A5C"/>
<path d="M80.2831 17.3176C78.2274 16.1626 75.8808 15.5845 73.2431 15.5835C70.6056 15.5825 68.2498 16.1605 66.1758 17.3176C64.1312 18.4419 62.4288 20.103 61.2504 22.1232C60.046 24.171 59.4438 26.5411 59.4438 29.2334C59.4438 31.8882 60.046 34.248 61.2504 36.313C62.4215 38.3465 64.125 40.0185 66.1758 41.1477C68.254 42.3048 70.6098 42.8833 73.2431 42.8833C75.8765 42.8833 78.2231 42.3048 80.2831 41.1477C82.3263 40.008 84.0273 38.3384 85.2086 36.313C86.4312 34.247 87.0432 31.8871 87.0441 29.2334C87.0441 26.5399 86.4323 24.1698 85.2086 22.1232C84.0205 20.1106 82.3205 18.4519 80.2831 17.3176ZM80.2704 33.7378C79.7552 34.6758 79.0581 35.5009 78.2203 36.1639C77.3824 36.8271 76.4208 37.3148 75.3922 37.5984C74.3636 37.882 73.2888 37.9558 72.2314 37.8152C71.1739 37.6747 70.1552 37.3228 69.2354 36.7804C68.0268 36.043 67.0385 34.9919 66.3748 33.7378C65.6752 32.4485 65.325 30.9471 65.3239 29.2334C65.3228 27.5198 65.6731 26.0081 66.3748 24.6985C67.0275 23.4364 68.0183 22.3825 69.2354 21.6558C70.4782 20.9512 71.8811 20.5809 73.3081 20.5809C74.7352 20.5809 76.1381 20.9512 77.3809 21.6558C78.6105 22.3754 79.6118 23.4305 80.2687 24.6985C80.9693 26.0103 81.3202 27.5219 81.3212 29.2334C81.3223 30.9449 80.972 32.4463 80.2704 33.7378Z" fill="#F46A5C"/>
<path d="M90.6766 0C90.261 0 90.001 0.206279 90.001 0.825117V17.674V42.6531H95.8705V17.674V5.10381C95.8862 2.70581 93.5905 0 90.6766 0Z" fill="#F46A5C"/>
<path d="M37.6246 35.2526C38.4654 35.2526 39.1471 34.1667 39.1471 32.8272C39.1471 31.4878 38.4654 30.4019 37.6246 30.4019C36.7837 30.4019 36.1021 31.4878 36.1021 32.8272C36.1021 34.1667 36.7837 35.2526 37.6246 35.2526Z" fill="#F46A5C"/>
<path d="M46.9682 35.7253C47.7834 35.7253 48.4443 34.6719 48.4443 33.3724C48.4443 32.0729 47.7834 31.0195 46.9682 31.0195C46.1531 31.0195 45.4922 32.0729 45.4922 33.3724C45.4922 34.6719 46.1531 35.7253 46.9682 35.7253Z" fill="#F46A5C"/>
<path d="M47.3663 39.3995C47.2507 40.6743 45.7282 42.0168 44.2185 41.9361C42.7087 41.8556 41.3899 40.3068 41.2279 39.0756C41.0466 37.6994 41.8504 36.9403 44.5972 37.261C46.2112 37.4512 47.4673 38.2844 47.3663 39.3995Z" fill="#F46A5C"/>
<path d="M30.1367 27.5736C30.1367 24.5713 33.0086 21.187 36.6441 21.187C37.1655 21.187 37.4896 21.4465 37.4896 22.2184V27.2013C40.1096 26.9177 41.1203 26.9339 43.2654 27.8799V27.58C43.2654 24.5778 46.1357 21.1934 49.7712 21.1934C50.2927 21.1934 50.6168 21.4529 50.6168 22.2249V29.3963C50.6168 31.4913 52.2211 33.8233 54.1464 34.6274C54.6967 34.8579 55.2438 35.1432 55.8294 35.2914C55.9085 35.3146 55.9919 35.3189 56.0729 35.3038C56.154 35.2886 56.2304 35.2546 56.296 35.2045C56.3615 35.1543 56.4144 35.0893 56.4504 35.0149C56.4864 34.9404 56.5045 34.8585 56.5032 34.7757V26.352C56.5032 20.9388 56.7374 15.9043 50.6215 15.9043C47.1111 15.9043 44.2922 18.0928 42.4392 20.1025C41.8841 17.6126 40.4802 15.9043 36.9233 15.9043C33.7947 15.9043 31.2165 17.6432 29.3827 19.4498C28.3527 17.8237 26.4707 17.1936 24.8663 17.1936C24.5727 17.1936 24.2695 17.2822 24.2695 17.9446V22.9259V37.8699C24.2695 38.5404 24.4009 39.2042 24.6564 39.8237C24.9118 40.4431 25.2862 41.0059 25.7581 41.4799C26.2301 41.954 26.7905 42.3301 27.4071 42.5866C28.0238 42.8433 28.6847 42.9753 29.3522 42.9753C29.5649 42.9753 29.769 42.8904 29.9194 42.7393C30.0699 42.5882 30.1544 42.3833 30.1544 42.1695L30.1367 27.5736Z" fill="#F46A5C"/>
</g>
<defs>
<clipPath id="clip0_253_159">
<rect width="120" height="43.4783" fill="white"/>
</clipPath>
</defs>
</svg>
